<svg xmlns="http://www.w3.org/2000/svg" width="54" height="56" viewBox="-10 -10 54 56" id="eq-9-active" x="209" y="581"><path d="M4.38 18H1.013v-.347c.477-.044.715-.275.715-.912V9.505c0-.535-.238-.897-.729-.94v-.348h2.678v8.524c0 .666.239.897.701.912V18zm3.323-8.871c0 .637-.477 1.114-1.094 1.114-.617 0-1.08-.477-1.08-1.114C5.53 8.492 6.006 8 6.637 8c.589 0 1.066.507 1.066 1.129zM8.277 18H4.912v-.347c.645-.16.743-.26.743-.927v-4.124c0-.651-.14-.796-.757-.926v-.347h2.706v5.44c0 .623.183.811.673.884V18zM20 18h-3.323v-.347c.533-.044.673-.246.673-.854v-3.3c0-.897-.21-1.375-.743-1.375-.253 0-.52.102-.814.362-.182.145-.378.405-.378.478v3.835c0 .55.154.796.645.854V18h-3.253v-.347c.518-.044.659-.26.659-.854v-3.473c0-.869-.21-1.202-.758-1.202-.322 0-1.177.55-1.177.898v3.777c0 .55.14.781.63.854V18h-3.35v-.347c.616-.116.77-.304.77-.898v-4.153c0-.68-.168-.84-.785-.926v-.347h2.693v1.085h.042c.532-.883 1.121-1.26 2.019-1.26.883 0 1.374.348 1.795 1.26.729-.926 1.262-1.26 2.06-1.26 1.15 0 1.894.768 1.894 2.056v3.589c0 .622.154.825.701.854V18zm2-9h1v1h-1V9zm2 0h1v1h-1V9zm2 0h1v1h-1V9zm2 0h1v1h-1V9zm2 0h1v1h-1V9zm-6 8h1v1h-1v-1zm2 0h1v1h-1v-1zm2 0h1v1h-1v-1zm2 0h1v1h-1v-1zm2-8h1v1h-1V9zm-10 2h1v1h-1v-1zm10 0h1v1h-1v-1zm-10 2h1v1h-1v-1zm10 0h1v1h-1v-1zm-10 2h1v1h-1v-1zm10 0h1v1h-1v-1zm-10 2h1v1h-1v-1zm10 0h1v1h-1v-1zm-20 4h1v1h-1v-1zm2 0h1v1h-1v-1zm2 0h1v1h-1v-1zm2 0h1v1h-1v-1zm-4 8h1v1h-1v-1zm2 0h1v1h-1v-1zm2 0h1v1h-1v-1zm-6-6h1v1h-1v-1zm6 0h1v1h-1v-1zm-6 2h1v1h-1v-1zm6 0h1v1h-1v-1zm-6 2h1v1h-1v-1zm6 0h1v1h-1v-1zm-6 2h1v1h-1v-1z" fill="#00AE34" fill-rule="evenodd"/></svg>