<?xml version="1.0" encoding="iso-8859-1"?>
<!-- Generator: Adobe Illustrator 16.0.0, SVG Export Plug-In . SVG Version: 6.00 Build 0)  -->
<!DOCTYPE svg PUBLIC "-//W3C//DTD SVG 1.1//EN" "http://www.w3.org/Graphics/SVG/1.1/DTD/svg11.dtd">
<svg version="1.1" id="Capa_1" xmlns="http://www.w3.org/2000/svg" xmlns:xlink="http://www.w3.org/1999/xlink" x="0px" y="0px"
	 width="25px" height="25px" viewBox="0 0 66.137 66.137" style="enable-background:new 0 0 66.137 66.137;"
	 xml:space="preserve">
<g>
	<g>
		<path d="M33.066,66.136C14.834,66.136,0,51.302,0,33.069C0,14.835,14.834,0.001,33.066,0.001
			c18.234,0,33.071,14.834,33.071,33.068C66.137,51.302,51.301,66.136,33.066,66.136z M33.066,4.001C17.039,4.001,4,17.041,4,33.069
			s13.039,29.067,29.066,29.067c16.03,0,29.071-13.04,29.071-29.067S49.096,4.001,33.066,4.001z"/>
		<polygon points="35.658,45.575 25.342,33.068 35.658,20.562 38.744,23.106 30.527,33.068 38.744,43.03 		"/>
	</g>
</g>
<g>
</g>
<g>
</g>
<g>
</g>
<g>
</g>
<g>
</g>
<g>
</g>
<g>
</g>
<g>
</g>
<g>
</g>
<g>
</g>
<g>
</g>
<g>
</g>
<g>
</g>
<g>
</g>
<g>
</g>
</svg>
