<?xml version="1.0" encoding="iso-8859-1"?>
<!-- Generator: Adobe Illustrator 16.0.0, SVG Export Plug-In . SVG Version: 6.00 Build 0)  -->
<!DOCTYPE svg PUBLIC "-//W3C//DTD SVG 1.1//EN" "http://www.w3.org/Graphics/SVG/1.1/DTD/svg11.dtd">
<svg version="1.1" id="Capa_1" xmlns="http://www.w3.org/2000/svg" xmlns:xlink="http://www.w3.org/1999/xlink" x="0px" y="0px"
	 width="25px" height="25px" viewBox="0 0 66.137 66.137" style="enable-background:new 0 0 66.137 66.137;"
	 xml:space="preserve">
<g>
	<g>
		<path d="M33.067,66.136C14.834,66.136,0,51.302,0,33.069C0,14.835,14.834,0.001,33.067,0.001c18.234,0,33.07,14.834,33.07,33.068
			C66.137,51.302,51.302,66.136,33.067,66.136z M33.067,4.001C17.04,4.001,4,17.041,4,33.069s13.04,29.067,29.067,29.067
			c16.029,0,29.07-13.04,29.07-29.067S49.098,4.001,33.067,4.001z"/>
		<polygon points="30.479,45.575 27.393,43.03 35.609,33.068 27.393,23.106 30.479,20.562 40.795,33.068 		"/>
	</g>
</g>
<g>
</g>
<g>
</g>
<g>
</g>
<g>
</g>
<g>
</g>
<g>
</g>
<g>
</g>
<g>
</g>
<g>
</g>
<g>
</g>
<g>
</g>
<g>
</g>
<g>
</g>
<g>
</g>
<g>
</g>
</svg>
