<?xml version="1.0" encoding="iso-8859-1"?>
<!-- Generator: Adobe Illustrator 16.0.0, SVG Export Plug-In . SVG Version: 6.00 Build 0)  -->
<!DOCTYPE svg PUBLIC "-//W3C//DTD SVG 1.1//EN" "http://www.w3.org/Graphics/SVG/1.1/DTD/svg11.dtd">
<svg version="1.1" id="Capa_1" xmlns="http://www.w3.org/2000/svg" xmlns:xlink="http://www.w3.org/1999/xlink" x="0px" y="0px"
	 width="18px" height="18px" viewBox="0 0 533.333 533.333" style="enable-background:new 0 0 533.333 533.333;"
	 xml:space="preserve">
<g>
	<path d="M66.667,466.667h466.667v66.666H0V0h66.667V466.667z M150,433.333c-27.615,0-50-22.386-50-50s22.385-50,50-50
		c1.473,0,2.928,0.077,4.369,0.202l53.746-89.577c-5.125-7.849-8.114-17.22-8.114-27.293c0-27.614,22.385-50,50-50
		c27.614,0,50,22.386,50,50c0,10.074-2.989,19.444-8.114,27.293l53.745,89.577c1.442-0.125,2.896-0.202,4.369-0.202
		c1.113,0,2.213,0.049,3.308,0.12l88.727-155.272c-5.487-8.025-8.7-17.727-8.7-28.182c0-27.614,22.386-50,50-50s50,22.386,50,50
		s-22.386,50-50,50c-1.115,0-2.213-0.049-3.308-0.121l-88.727,155.273c5.487,8.024,8.7,17.727,8.7,28.182c0,27.614-22.386,50-50,50
		s-50-22.386-50-50c0-10.072,2.99-19.443,8.114-27.293l-53.745-89.574c-1.44,0.124-2.896,0.201-4.369,0.201
		c-1.473,0-2.928-0.077-4.369-0.201l-53.746,89.575c5.125,7.849,8.115,17.22,8.115,27.292C200,410.947,177.614,433.333,150,433.333z
		"/>
</g>
<g>
</g>
<g>
</g>
<g>
</g>
<g>
</g>
<g>
</g>
<g>
</g>
<g>
</g>
<g>
</g>
<g>
</g>
<g>
</g>
<g>
</g>
<g>
</g>
<g>
</g>
<g>
</g>
<g>
</g>
</svg>
