<svg xmlns="http://www.w3.org/2000/svg" width="16" height="16" viewBox="0 0 24 24">
  <path fill-rule="evenodd" d="M13.4142136,12 L18.363961,7.05025253 C18.7544853,6.65972824 18.7544853,6.02656326 18.363961,5.63603897 C17.9734367,5.24551468 17.3402718,5.24551468 16.9497475,5.63603897 L12,10.5857864 L7.05025253,5.63603897 C6.65972824,5.24551468 6.02656326,5.24551468 5.63603897,5.63603897 C5.24551468,6.02656326 5.24551468,6.65972824 5.63603897,7.05025253 L10.5857864,12 L5.63603897,16.9497475 C5.24551468,17.3402718 5.24551468,17.9734367 5.63603897,18.363961 C6.02656326,18.7544853 6.65972824,18.7544853 7.05025253,18.363961 L12,13.4142136 L16.9497475,18.363961 C17.3402718,18.7544853 17.9734367,18.7544853 18.363961,18.363961 C18.7544853,17.9734367 18.7544853,17.3402718 18.363961,16.9497475 L13.4142136,12 Z"/>
</svg>
