<svg xmlns="http://www.w3.org/2000/svg" width="47" height="56" viewBox="-10 -10 47 56" id="eq-5-active" x="600" y="336"><path fill="#00AE34" fill-rule="evenodd" d="M5.255 12.726l3.38 5.163v.53l-3.79 5.24h4.567c.287 0 .503-.019.649-.056a1.07 1.07 0 0 0 .374-.171c.104-.077.2-.184.285-.322a2.69 2.69 0 0 0 .246-.569 7.31 7.31 0 0 0 .222-.95H12l-.18 2.997c-.005.154-.046.26-.122.321-.076.06-.188.091-.336.091H3v-.391l4.288-5.93-4.024-6.28V12h7.987c.12 0 .218.014.294.042.077.028.136.07.177.126a.494.494 0 0 1 .087.202c.016.08.024.17.024.273v2.466h-.749a11.606 11.606 0 0 0-.33-1.083 3.28 3.28 0 0 0-.319-.664 1.53 1.53 0 0 0-.333-.374 1.217 1.217 0 0 0-.392-.195 2.124 2.124 0 0 0-.59-.067H5.255zM3 1h1v1H3V1zm2 0h1v1H5V1zm2 0h1v1H7V1zm2 0h1v1H9V1zm2 0h1v1h-1V1zM3 3h1v1H3V3zm8 0h1v1h-1V3zM3 5h1v1H3V5zm8 0h1v1h-1V5zM3 7h1v1H3V7zm8 0h1v1h-1V7zM3 9h1v1H3V9zm2 0h1v1H5V9zm2 0h1v1H7V9zm2 0h1v1H9V9zm2 0h1v1h-1V9zm4 5h1v1h-1v-1zm2 0h1v1h-1v-1zm2 0h1v1h-1v-1zm2 0h1v1h-1v-1zm2 0h1v1h-1v-1zm-8 2h1v1h-1v-1zm8 0h1v1h-1v-1zm-8 2h1v1h-1v-1zm8 0h1v1h-1v-1zm-8 2h1v1h-1v-1zm8 0h1v1h-1v-1zm-8 2h1v1h-1v-1zm2 0h1v1h-1v-1zm2 0h1v1h-1v-1zm2 0h1v1h-1v-1zm2 0h1v1h-1v-1zM3 27h1v1H3v-1zm2 0h1v1H5v-1zm2 0h1v1H7v-1zm2 0h1v1H9v-1zm2 0h1v1h-1v-1zm-8 2h1v1H3v-1zm8 0h1v1h-1v-1zm-8 2h1v1H3v-1zm8 0h1v1h-1v-1zm-8 2h1v1H3v-1zm8 0h1v1h-1v-1zm-8 2h1v1H3v-1zm2 0h1v1H5v-1zm2 0h1v1H7v-1zm2 0h1v1H9v-1zm2 0h1v1h-1v-1z"/></svg>