<svg xmlns="http://www.w3.org/2000/svg" xmlns:xlink="http://www.w3.org/1999/xlink" width="73" height="56" viewBox="0 0 73 56">
  <defs>
    <clipPath id="clip-맞춤형_크기_1">
      <rect width="73" height="56"/>
    </clipPath>
  </defs>
  <g id="맞춤형_크기_1" data-name="맞춤형 크기 – 1" clip-path="url(#clip-맞춤형_크기_1)">
    <rect width="73" height="56" fill="#fff"/>
    <circle id="타원_11" data-name="타원 11" cx="19" cy="19" r="19" transform="translate(28)" fill="#41d3bd"/>
    <g id="사각형_2" data-name="사각형 2" transform="matrix(1, 0, 0, 0.999, 1.027, 12.701)" fill="#aeaeae" stroke="#616161" stroke-width="0.7">
      <rect width="62.574" height="41.428" rx="12" stroke="none"/>
      <rect x="0.35" y="0.35" width="61.874" height="40.728" rx="11.65" fill="none"/>
    </g>
    <g id="사각형_1" data-name="사각형 1" transform="matrix(1, 0, 0, 0.999, 0.624, 12.438)" fill="#f4f9f8" stroke="#616161" stroke-width="0.7">
      <rect width="62.242" height="40.615" rx="12" stroke="none"/>
      <rect x="0.35" y="0.35" width="61.542" height="39.915" rx="11.65" fill="none"/>
    </g>
    <g id="사각형_3" data-name="사각형 3" transform="translate(6.368 17.556)" fill="#c1c1c1" stroke="#616161" stroke-width="0.7">
      <rect width="14.905" height="10.001" rx="5" stroke="none"/>
      <rect x="0.35" y="0.35" width="14.205" height="9.301" rx="4.65" fill="none"/>
    </g>
    <g id="사각형_4" data-name="사각형 4" transform="translate(7.37 18.36)" fill="#fff" stroke="#616161" stroke-width="0.7">
      <rect width="13.847" height="9.455" rx="4.728" stroke="none"/>
      <rect x="0.35" y="0.35" width="13.147" height="8.755" rx="4.378" fill="none"/>
    </g>
    <g id="사각형_5" data-name="사각형 5" transform="translate(24.998 17.552)" fill="#c1c1c1" stroke="#616161" stroke-width="0.7">
      <rect width="14.905" height="10.001" rx="5" stroke="none"/>
      <rect x="0.35" y="0.35" width="14.205" height="9.301" rx="4.65" fill="none"/>
    </g>
    <g id="사각형_7" data-name="사각형 7" transform="translate(25.73 18.36)" fill="#fff" stroke="#616161" stroke-width="0.7">
      <rect width="13.847" height="9.455" rx="4.728" stroke="none"/>
      <rect x="0.35" y="0.35" width="13.147" height="8.755" rx="4.378" fill="none"/>
    </g>
    <g id="사각형_9" data-name="사각형 9" transform="translate(6.179 31.285)" fill="#c1c1c1" stroke="#616161" stroke-width="0.7">
      <rect width="24.224" height="16.872" rx="8.436" stroke="none"/>
      <rect x="0.35" y="0.35" width="23.524" height="16.172" rx="8.086" fill="none"/>
    </g>
    <g id="사각형_10" data-name="사각형 10" transform="translate(7.403 32.497)" fill="#fff" stroke="#616161" stroke-width="0.7">
      <rect width="22.867" height="15.578" rx="7.789" stroke="none"/>
      <rect x="0.35" y="0.35" width="22.167" height="14.878" rx="7.439" fill="none"/>
    </g>
    <g id="사각형_11" data-name="사각형 11" transform="translate(34.024 31.283)" fill="#c1c1c1" stroke="#616161" stroke-width="0.7">
      <rect width="24.224" height="16.872" rx="8.436" stroke="none"/>
      <rect x="0.35" y="0.35" width="23.524" height="16.172" rx="8.086" fill="none"/>
    </g>
    <g id="사각형_6" data-name="사각형 6" transform="translate(43.882 17.552)" fill="#c1c1c1" stroke="#616161" stroke-width="0.7">
      <rect width="14.905" height="10.001" rx="5" stroke="none"/>
      <rect x="0.35" y="0.35" width="14.205" height="9.301" rx="4.65" fill="none"/>
    </g>
    <g id="사각형_57" data-name="사각형 57" transform="translate(44.549 18.36)" fill="#fff" stroke="#616161" stroke-width="0.7">
      <rect width="13.847" height="9.455" rx="4.728" stroke="none"/>
      <rect x="0.35" y="0.35" width="13.147" height="8.755" rx="4.378" fill="none"/>
    </g>
    <g id="합치기_3" data-name="합치기 3" transform="translate(18.178 36.949) rotate(22)" fill="#fff">
      <path d="M 2.616846561431885 7.802523136138916 L 1.476996660232544 7.802523136138916 L 1.476996660232544 5.573413372039795 L 1.476996660232544 5.414413452148438 L 1.345426678657532 5.325153350830078 C 0.7103466391563416 4.894303321838379 0.2999966740608215 3.954213380813599 0.2999966740608215 2.930163383483887 C 0.2999966740608215 1.479883313179016 1.095136642456055 0.300003319978714 2.072506666183472 0.300003319978714 C 3.049876689910889 0.300003319978714 3.845016717910767 1.479883313179016 3.845016717910767 2.930163383483887 C 3.845016717910767 3.984663248062134 3.417816638946533 4.935793399810791 2.75667667388916 5.353263378143311 L 2.616846561431885 5.441553115844727 L 2.616846561431885 5.60692310333252 L 2.616846561431885 7.802523136138916 Z" stroke="none"/>
      <path d="M 2.316846609115601 7.502523422241211 L 2.316846609115601 5.60692310333252 L 2.316846609115601 5.276183128356934 L 2.59649658203125 5.099593162536621 C 3.163836717605591 4.741363525390625 3.545016765594482 3.86953330039978 3.545016765594482 2.930163383483887 C 3.545016765594482 1.667083382606506 2.870686769485474 0.6000033617019653 2.072506666183472 0.6000033617019653 C 1.274326682090759 0.6000033617019653 0.5999966859817505 1.667083382606506 0.5999966859817505 2.930163383483887 C 0.5999966859817505 3.857633352279663 0.9587066769599915 4.700273513793945 1.513846635818481 5.076893329620361 L 1.776996612548828 5.255423545837402 L 1.776996612548828 5.573413372039795 L 1.776996612548828 7.502523422241211 L 2.316846609115601 7.502523422241211 M 2.916846752166748 8.102523803710938 L 1.17699670791626 8.102523803710938 L 1.17699670791626 5.573413372039795 C 0.4807366728782654 5.101053237915039 -3.333816493977793e-06 4.094983100891113 -3.333816493977793e-06 2.930163383483887 C -3.333816493977793e-06 1.311873316764832 0.9278866648674011 3.332366986796842e-06 2.072506666183472 3.332366986796842e-06 C 3.217126607894897 3.332366986796842e-06 4.145016670227051 1.311873316764832 4.145016670227051 2.930163383483887 C 4.145016670227051 4.12333345413208 3.640636682510376 5.149893283843994 2.916846752166748 5.60692310333252 L 2.916846752166748 8.102523803710938 Z" stroke="none"/>
    </g>
    <g id="사각형_43" data-name="사각형 43" transform="translate(15.673 43.773) rotate(22)" fill="#f2dd82" stroke="#000" stroke-width="0.6">
      <rect width="3.332" height="10.622" rx="1.666" stroke="none"/>
      <rect x="0.3" y="0.3" width="2.732" height="10.022" rx="1.366" fill="none"/>
    </g>
    <g id="사각형_68" data-name="사각형 68" transform="translate(35.186 32.497)" fill="#fff" stroke="#616161" stroke-width="0.7">
      <rect width="22.867" height="15.578" rx="7.789" stroke="none"/>
      <rect x="0.35" y="0.35" width="22.167" height="14.878" rx="7.439" fill="none"/>
    </g>
    <g id="합치기_5" data-name="합치기 5" transform="matrix(0.891, -0.454, 0.454, 0.891, 43.721, 39.957)" fill="#fff">
      <path d="M 2.673900127410889 8.462400436401367 C 2.361420154571533 8.462400436401367 2.107200145721436 8.207779884338379 2.107200145721436 7.894800186157227 L 2.107200145721436 5.544900417327881 C 2.107200145721436 5.538510322570801 2.107360124588013 5.53216028213501 2.107560157775879 5.525810241699219 L 2.117600202560425 5.216100215911865 L 1.807720184326172 5.216100215911865 L 1.413900136947632 5.216100215911865 C 0.7996901273727417 5.216100215911865 0.3000001311302185 4.716410160064697 0.3000001311302185 4.102200508117676 C 0.3000001311302185 4.087520122528076 0.300270140171051 4.072880268096924 0.3008401393890381 4.058340549468994 L 0.3013601303100586 4.044790267944336 L 0.3006601333618164 4.031250476837158 C 0.3002201318740845 4.022860527038574 0.3000001311302185 4.014400482177734 0.3000001311302185 4.005900382995605 L 0.3000001311302185 0.7767003178596497 C 0.3000001311302185 0.5138503313064575 0.5138501524925232 0.3000003099441528 0.7767001390457153 0.3000003099441528 C 1.040050148963928 0.3000003099441528 1.254300117492676 0.5138503313064575 1.254300117492676 0.7767003178596497 L 1.254300117492676 2.688300371170044 L 1.254300117492676 2.988300323486328 L 1.55430006980896 2.988300323486328 L 1.915200114250183 2.988300323486328 L 2.215200185775757 2.988300323486328 L 2.215200185775757 2.688300371170044 L 2.215200185775757 0.7767003178596497 C 2.215200185775757 0.5138503313064575 2.429050207138062 0.3000003099441528 2.691900014877319 0.3000003099441528 C 2.955250024795532 0.3000003099441528 3.169500112533569 0.5138503313064575 3.169500112533569 0.7767003178596497 L 3.169500112533569 2.688300371170044 L 3.169500112533569 2.988300323486328 L 3.469500064849854 2.988300323486328 L 3.794400215148926 2.988300323486328 L 4.094399929046631 2.988300323486328 L 4.094399929046631 2.688300371170044 L 4.094399929046631 0.7767003178596497 C 4.094399929046631 0.5138503313064575 4.308249950408936 0.3000003099441528 4.571100234985352 0.3000003099441528 C 4.833950042724609 0.3000003099441528 5.047800064086914 0.5138503313064575 5.047800064086914 0.7767003178596497 L 5.047800064086914 3.796200275421143 C 5.047800064086914 3.822930335998535 5.045540332794189 3.849900245666504 5.04109001159668 3.876340389251709 L 5.033810138702393 3.91959023475647 L 5.039220333099365 3.963110208511353 C 5.044909954071045 4.008980274200439 5.047800064086914 4.055770397186279 5.047800064086914 4.102200508117676 C 5.047800064086914 4.716410160064697 4.548110008239746 5.216100215911865 3.933900117874146 5.216100215911865 L 3.540970087051392 5.216100215911865 L 3.231090068817139 5.216100215911865 L 3.241130113601685 5.525810241699219 C 3.241330146789551 5.53216028213501 3.24150013923645 5.538510322570801 3.24150013923645 5.544900417327881 L 3.24150013923645 7.894800186157227 C 3.24150013923645 8.207779884338379 2.98688006401062 8.462400436401367 2.673900127410889 8.462400436401367 Z" stroke="none"/>
      <path d="M 2.673900127410889 8.162400245666504 C 2.821460008621216 8.162400245666504 2.941500186920166 8.042360305786133 2.941500186920166 7.894800186157227 L 2.941500186920166 5.544900417327881 L 2.941280126571655 5.535530090332031 L 2.921220064163208 4.91610050201416 L 3.540970087051392 4.91610050201416 L 3.933900117874146 4.91610050201416 C 4.382689952850342 4.91610050201416 4.747800350189209 4.550990104675293 4.747800350189209 4.102200508117676 C 4.747800350189209 4.068080425262451 4.745680332183838 4.033730506896973 4.741499900817871 4.000080108642578 L 4.730690002441406 3.913040399551392 L 4.745250225067139 3.826550245285034 C 4.746940135955811 3.816510200500488 4.747800350189209 3.806300401687622 4.747800350189209 3.796200275421143 L 4.747800350189209 0.7767003178596497 C 4.747800350189209 0.679270327091217 4.668529987335205 0.6000003218650818 4.571100234985352 0.6000003218650818 C 4.47367000579834 0.6000003218650818 4.394400119781494 0.679270327091217 4.394400119781494 0.7767003178596497 L 4.394400119781494 2.688300371170044 L 4.394400119781494 3.288300275802612 L 3.794400215148926 3.288300275802612 L 3.469500064849854 3.288300275802612 L 2.869500160217285 3.288300275802612 L 2.869500160217285 2.688300371170044 L 2.869500160217285 0.7767003178596497 C 2.869500160217285 0.679270327091217 2.789830207824707 0.6000003218650818 2.691900014877319 0.6000003218650818 C 2.594470024108887 0.6000003218650818 2.515200138092041 0.679270327091217 2.515200138092041 0.7767003178596497 L 2.515200138092041 2.688300371170044 L 2.515200138092041 3.288300275802612 L 1.915200114250183 3.288300275802612 L 1.55430006980896 3.288300275802612 L 0.9543001055717468 3.288300275802612 L 0.9543001055717468 2.688300371170044 L 0.9543001055717468 0.7767003178596497 C 0.9543001055717468 0.679270327091217 0.8746301531791687 0.6000003218650818 0.7767001390457153 0.6000003218650818 C 0.6792701482772827 0.6000003218650818 0.6000001430511475 0.679270327091217 0.6000001430511475 0.7767003178596497 L 0.6000001430511475 4.005900382995605 C 0.6000001430511475 4.009200096130371 0.6000901460647583 4.01248025894165 0.6002601385116577 4.015740394592285 L 0.6016601324081421 4.042820453643799 L 0.6006101369857788 4.069920539855957 C 0.6002001166343689 4.080620288848877 0.6000001430511475 4.091400146484375 0.6000001430511475 4.102200508117676 C 0.6000001430511475 4.550990104675293 0.9651101231575012 4.91610050201416 1.413900136947632 4.91610050201416 L 1.807720184326172 4.91610050201416 L 2.427470207214355 4.91610050201416 L 2.407410144805908 5.535530090332031 L 2.40720009803772 5.544900417327881 L 2.40720009803772 7.894800186157227 C 2.40720009803772 8.042360305786133 2.526840209960938 8.162400245666504 2.673900127410889 8.162400245666504 M 2.673900127410889 8.76240062713623 C 2.195100069046021 8.76240062713623 1.807200074195862 8.374500274658203 1.807200074195862 7.894800186157227 L 1.807200074195862 5.544900417327881 C 1.807200074195862 5.535260200500488 1.80741012096405 5.525670528411865 1.807720184326172 5.516100406646729 L 1.413900136947632 5.516100406646729 C 0.6327001452445984 5.516100406646729 1.274108853976941e-07 4.882500171661377 1.274108853976941e-07 4.102200508117676 C 1.274108853976941e-07 4.0836501121521 0.0003501274040900171 4.065140247344971 0.001060127397067845 4.046760082244873 C 0.0003601274220272899 4.03324031829834 1.274108853976941e-07 4.019600391387939 1.274108853976941e-07 4.005900382995605 L 1.274108853976941e-07 0.7767003178596497 C 1.274108853976941e-07 0.3474003076553345 0.3474001288414001 3.1356810836769e-07 0.7767001390457153 3.1356810836769e-07 C 1.206000089645386 3.1356810836769e-07 1.55430006980896 0.3474003076553345 1.55430006980896 0.7767003178596497 L 1.55430006980896 2.688300371170044 L 1.915200114250183 2.688300371170044 L 1.915200114250183 0.7767003178596497 C 1.915200114250183 0.3474003076553345 2.263500213623047 3.1356810836769e-07 2.691900014877319 3.1356810836769e-07 C 3.121200084686279 3.1356810836769e-07 3.469500064849854 0.3474003076553345 3.469500064849854 0.7767003178596497 L 3.469500064849854 2.688300371170044 L 3.794400215148926 2.688300371170044 L 3.794400215148926 0.7767003178596497 C 3.794400215148926 0.3474003076553345 4.141799926757813 3.1356810836769e-07 4.571100234985352 3.1356810836769e-07 C 5.000400066375732 3.1356810836769e-07 5.347800254821777 0.3474003076553345 5.347800254821777 0.7767003178596497 L 5.347800254821777 3.796200275421143 C 5.347800254821777 3.840480327606201 5.344039916992188 3.88390040397644 5.336930274963379 3.926140308380127 C 5.344089984893799 3.983800411224365 5.347800254821777 4.042600154876709 5.347800254821777 4.102200508117676 C 5.347800254821777 4.882500171661377 4.715100288391113 5.516100406646729 3.933900117874146 5.516100406646729 L 3.540970087051392 5.516100406646729 C 3.541280031204224 5.525670528411865 3.541500091552734 5.535260200500488 3.541500091552734 5.544900417327881 L 3.541500091552734 7.894800186157227 C 3.541500091552734 8.374500274658203 3.152700185775757 8.76240062713623 2.673900127410889 8.76240062713623 Z" stroke="none"/>
    </g>
    <g id="사각형_56" data-name="사각형 56" transform="matrix(0.891, -0.454, 0.454, 0.891, 47.743, 45.832)" fill="#f2dd82" stroke="#000" stroke-width="0.6">
      <rect width="3.793" height="11.38" rx="1.897" stroke="none"/>
      <rect x="0.3" y="0.3" width="3.193" height="10.78" rx="1.597" fill="none"/>
    </g>
    <rect id="사각형_22" data-name="사각형 22" width="2.911" height="9.165" rx="1.456" transform="translate(10.04 23.331) rotate(-89)"/>
    <rect id="사각형_21" data-name="사각형 21" width="2.908" height="9.069" rx="1.454" transform="translate(13.404 17.35) rotate(1)"/>
    <rect id="사각형_33" data-name="사각형 33" width="2.77" height="8.059" rx="1.385" transform="translate(29.605 23.336) rotate(-91)"/>
    <g id="사각형_34" data-name="사각형 34" transform="translate(28.779 22.437) rotate(-91)" fill="#fff" stroke="#707070" stroke-width="0.6">
      <rect width="2.405" height="8.038" rx="1.202" stroke="none"/>
      <rect x="0.3" y="0.3" width="1.805" height="7.438" rx="0.902" fill="none"/>
    </g>
    <ellipse id="타원_3" data-name="타원 3" cx="1.462" cy="1.34" rx="1.462" ry="1.34" transform="matrix(0.985, 0.174, -0.174, 0.985, 32.207, 16.767)"/>
    <g id="타원_4" data-name="타원 4" transform="matrix(0.985, 0.174, -0.174, 0.985, 31.621, 15.921)" fill="#fff" stroke="#707070" stroke-width="0.6">
      <ellipse cx="1.401" cy="1.401" rx="1.401" ry="1.401" stroke="none"/>
      <ellipse cx="1.401" cy="1.401" rx="1.101" ry="1.101" fill="none"/>
    </g>
    <ellipse id="타원_5" data-name="타원 5" cx="1.401" cy="1.401" rx="1.401" ry="1.401" transform="matrix(0.985, 0.174, -0.174, 0.985, 32.349, 23.718)"/>
    <g id="타원_6" data-name="타원 6" transform="matrix(0.985, 0.174, -0.174, 0.985, 31.573, 23.21)" fill="#fff" stroke="#707070" stroke-width="0.6">
      <ellipse cx="1.401" cy="1.401" rx="1.401" ry="1.401" stroke="none"/>
      <ellipse cx="1.401" cy="1.401" rx="1.101" ry="1.101" fill="none"/>
    </g>
    <path id="합치기_12" data-name="합치기 12" d="M1.39,7.9A1.335,1.335,0,0,1,1.062,6.04L2.283,4.3.571,3.1A1.338,1.338,0,1,1,2.105.905L3.818,2.1,4.893.569A1.334,1.334,0,0,1,7.079,2.1L6,3.635l1.718,1.2A1.337,1.337,0,1,1,6.187,7.029l-1.718-1.2L3.247,7.57A1.334,1.334,0,0,1,1.39,7.9Z" transform="matrix(0.985, 0.174, -0.174, 0.985, 48.646, 17.043)"/>
    <g id="합치기_11" data-name="합치기 11" transform="matrix(0.985, 0.174, -0.174, 0.985, 48.313, 16.17)" fill="#fff">
      <path d="M 1.834069848060608 8.021008491516113 C 1.621669888496399 8.021018028259277 1.417069911956787 7.95624828338623 1.242389917373657 7.8337082862854 C 1.015789866447449 7.675318241119385 0.8648698329925537 7.438568115234375 0.8169998526573181 7.16675853729248 C 0.7691498398780823 6.894988536834717 0.8299698829650879 6.620778560638428 0.9882698655128479 6.394638538360596 L 2.439089775085449 4.322308540344238 L 2.611129760742188 4.076568126678467 L 2.365399837493896 3.904508352279663 L 0.7183698415756226 2.751248359680176 C 0.275519847869873 2.441118240356445 0.1676598638296127 1.828348398208618 0.4779298603534698 1.38528835773468 C 0.6612398624420166 1.122958302497864 0.9619698524475098 0.9664983749389648 1.282579898834229 0.9664983749389648 C 1.484049916267395 0.9664983749389648 1.678149819374084 1.027848362922668 1.843909859657288 1.143928289413452 L 3.490739822387695 2.297048330307007 L 3.736499786376953 2.469128370285034 L 3.908569812774658 2.223348379135132 L 4.946459770202637 0.7408483624458313 C 5.139959812164307 0.4650083482265472 5.457230091094971 0.3001783490180969 5.794980049133301 0.3001783490180969 C 6.007239818572998 0.3001783490180969 6.211699962615967 0.3647683560848236 6.386260032653809 0.4869683384895325 C 6.612730026245117 0.645258367061615 6.763779640197754 0.8821983337402344 6.811739921569824 1.154248356819153 C 6.859709739685059 1.426278352737427 6.798820018768311 1.700538396835327 6.640299797058105 1.926518321037292 L 5.602200031280518 3.409298419952393 L 5.430160045623779 3.655048370361328 L 5.67588996887207 3.827108383178711 L 7.532829761505127 5.12734842300415 C 7.747429847717285 5.277628421783447 7.890629768371582 5.502598285675049 7.936049938201904 5.760778427124023 C 7.981469631195068 6.018988132476807 7.923659801483154 6.279458522796631 7.773269653320313 6.494208335876465 C 7.590240001678467 6.756138324737549 7.289809703826904 6.912368297576904 6.969429969787598 6.912398338317871 C 6.767729759216309 6.912418365478516 6.573349952697754 6.850958347320557 6.407289981842041 6.734668254852295 L 4.550559997558594 5.434568405151367 L 4.304800033569336 5.26248836517334 L 4.132730007171631 5.508268356323242 L 2.681939840316772 7.580548286437988 C 2.488539934158325 7.856248378753662 2.171509742736816 8.020988464355469 1.834069848060608 8.021008491516113 Z" stroke="none"/>
      <path d="M 1.834059834480286 7.72100830078125 L 1.834049820899963 7.72100830078125 C 2.073819875717163 7.720998287200928 2.299039840698242 7.603998184204102 2.436179876327515 7.408488273620605 L 3.886969804763794 5.336208343505859 L 4.231110095977783 4.844658374786377 L 4.722640037536621 5.188828468322754 L 6.579390048980713 6.488938331604004 C 6.694729804992676 6.569718360900879 6.829599857330322 6.61240816116333 6.969419956207275 6.612398147583008 C 7.191889762878418 6.612378120422363 7.400399684906006 6.504058361053467 7.527529716491699 6.322118282318115 C 7.743149757385254 6.014228343963623 7.668319702148438 5.588478565216064 7.3607497215271 5.373088359832764 L 5.503809928894043 4.072848320007324 L 5.012360095977783 3.728728294372559 L 5.35644006729126 3.237248420715332 L 6.394710063934326 1.754228353500366 C 6.507149696350098 1.59393835067749 6.550329685211182 1.39935839176178 6.516299724578857 1.206338286399841 C 6.482259750366211 1.013298392295837 6.375109672546387 0.845188319683075 6.21422004699707 0.7327383160591125 C 6.090339660644531 0.6460183262825012 5.945369720458984 0.6001783609390259 5.794980049133301 0.6001783609390259 C 5.554919719696045 0.6001783609390259 5.329469680786133 0.7172583341598511 5.192219734191895 0.9129083752632141 L 4.154329776763916 2.395408391952515 L 3.810189962387085 2.886958360671997 L 3.31866979598999 2.54278826713562 L 1.67182981967926 1.389668345451355 C 1.556759834289551 1.309088349342346 1.422159910202026 1.266498327255249 1.282579898834229 1.266498327255249 C 1.059879899024963 1.266498327255249 0.8510698676109314 1.375048398971558 0.7236698865890503 1.55737829208374 C 0.6192498803138733 1.706488370895386 0.579089879989624 1.887198328971863 0.6105998754501343 2.066218376159668 C 0.6420998573303223 2.245178461074829 0.7414998412132263 2.401198387145996 0.8904498815536499 2.505508422851563 L 2.537479877471924 3.65876841545105 L 3.028929948806763 4.002888202667236 L 2.684849977493286 4.494368553161621 L 1.234039902687073 6.566678524017334 C 1.121669888496399 6.727208137512207 1.078489899635315 6.921838283538818 1.112459897994995 7.114728450775146 C 1.146399855613708 7.307498455047607 1.253429889678955 7.475408554077148 1.414679884910583 7.588108539581299 C 1.538619875907898 7.675058364868164 1.683639883995056 7.721018314361572 1.834059834480286 7.72100830078125 M 1.83407986164093 8.321008682250977 C 1.569779872894287 8.321018218994141 1.302919864654541 8.24262809753418 1.070099830627441 8.07929801940918 C 0.4661998748779297 7.657198429107666 0.3203998506069183 6.825598239898682 0.7424998879432678 6.222598552703857 L 2.193329811096191 4.150258541107178 L 0.5462998747825623 2.996998310089111 C -0.03330013900995255 2.591098308563232 -0.173700138926506 1.792798399925232 0.2321998625993729 1.213198304176331 C 0.4809742867946625 0.8571745157241821 0.8785873651504517 0.6664947271347046 1.282576322555542 0.6664947271347046 C 1.536273717880249 0.6664947271347046 1.792423725128174 0.7416256070137024 2.015999794006348 0.8981983661651611 L 3.6628098487854 2.051298379898071 L 4.700699806213379 0.5687983632087708 C 4.96050500869751 0.1984376907348633 5.374536991119385 0.0001831114204833284 5.79498291015625 0.0001831114204833284 C 6.059082984924316 0.0001831114204833284 6.325660705566406 0.07835080474615097 6.558300018310547 0.2411983460187912 C 7.162199974060059 0.6632983684539795 7.308899879455566 1.495798349380493 6.885900020599365 2.098798274993896 L 5.847959995269775 3.581358432769775 L 7.704899787902832 4.881598472595215 C 8.284500122070313 5.287498474121094 8.424900054931641 6.086698532104492 8.019000053405762 6.666298389434814 C 7.770398616790771 7.022074699401855 7.37315559387207 7.212365627288818 6.969456672668457 7.212400436401367 C 6.715484142303467 7.212422847747803 6.459023475646973 7.137144565582275 6.235199928283691 6.980398178100586 L 4.378489971160889 5.680318355560303 L 2.92769980430603 7.752598285675049 C 2.668019771575928 8.122777938842773 2.254309892654419 8.320988655090332 1.83407986164093 8.321008682250977 Z" stroke="none" fill="#707070"/>
    </g>
    <g id="합치기_13" data-name="합치기 13" transform="translate(17.726 36.87) rotate(22)" fill="#fff">
      <path d="M 2.616846561431885 7.802523136138916 L 1.476996660232544 7.802523136138916 L 1.476996660232544 5.573413372039795 L 1.476996660232544 5.414413452148438 L 1.345426678657532 5.325153350830078 C 0.7103466391563416 4.894303321838379 0.2999966740608215 3.954213380813599 0.2999966740608215 2.930163383483887 C 0.2999966740608215 1.479883313179016 1.095136642456055 0.300003319978714 2.072506666183472 0.300003319978714 C 3.049876689910889 0.300003319978714 3.845016717910767 1.479883313179016 3.845016717910767 2.930163383483887 C 3.845016717910767 3.984663248062134 3.417816638946533 4.935793399810791 2.75667667388916 5.353263378143311 L 2.616846561431885 5.441553115844727 L 2.616846561431885 5.60692310333252 L 2.616846561431885 7.802523136138916 Z" stroke="none"/>
      <path d="M 2.316846609115601 7.502523422241211 L 2.316846609115601 5.60692310333252 L 2.316846609115601 5.276183128356934 L 2.59649658203125 5.099593162536621 C 3.163836717605591 4.741363525390625 3.545016765594482 3.86953330039978 3.545016765594482 2.930163383483887 C 3.545016765594482 1.667083382606506 2.870686769485474 0.6000033617019653 2.072506666183472 0.6000033617019653 C 1.274326682090759 0.6000033617019653 0.5999966859817505 1.667083382606506 0.5999966859817505 2.930163383483887 C 0.5999966859817505 3.857633352279663 0.9587066769599915 4.700273513793945 1.513846635818481 5.076893329620361 L 1.776996612548828 5.255423545837402 L 1.776996612548828 5.573413372039795 L 1.776996612548828 7.502523422241211 L 2.316846609115601 7.502523422241211 M 2.916846752166748 8.102523803710938 L 1.17699670791626 8.102523803710938 L 1.17699670791626 5.573413372039795 C 0.4807366728782654 5.101053237915039 -3.333816493977793e-06 4.094983100891113 -3.333816493977793e-06 2.930163383483887 C -3.333816493977793e-06 1.311873316764832 0.9278866648674011 3.332366986796842e-06 2.072506666183472 3.332366986796842e-06 C 3.217126607894897 3.332366986796842e-06 4.145016670227051 1.311873316764832 4.145016670227051 2.930163383483887 C 4.145016670227051 4.12333345413208 3.640636682510376 5.149893283843994 2.916846752166748 5.60692310333252 L 2.916846752166748 8.102523803710938 Z" stroke="none" fill="#616161"/>
    </g>
    <g id="사각형_59" data-name="사각형 59" transform="translate(15.221 43.693) rotate(22)" fill="#f3ca57" stroke="#616161" stroke-width="0.6">
      <rect width="3.332" height="10.622" rx="1.666" stroke="none"/>
      <rect x="0.3" y="0.3" width="2.732" height="10.022" rx="1.366" fill="none"/>
    </g>
    <g id="합치기_14" data-name="합치기 14" transform="matrix(0.891, -0.454, 0.454, 0.891, 43.959, 39.806)" fill="#fff">
      <path d="M 2.673900127410889 8.462400436401367 C 2.361420154571533 8.462400436401367 2.107200145721436 8.207779884338379 2.107200145721436 7.894800186157227 L 2.107200145721436 5.544900417327881 C 2.107200145721436 5.538510322570801 2.107360124588013 5.53216028213501 2.107560157775879 5.525810241699219 L 2.117600202560425 5.216100215911865 L 1.807720184326172 5.216100215911865 L 1.413900136947632 5.216100215911865 C 0.7996901273727417 5.216100215911865 0.3000001311302185 4.716410160064697 0.3000001311302185 4.102200508117676 C 0.3000001311302185 4.087520122528076 0.300270140171051 4.072880268096924 0.3008401393890381 4.058340549468994 L 0.3013601303100586 4.044790267944336 L 0.3006601333618164 4.031250476837158 C 0.3002201318740845 4.022860527038574 0.3000001311302185 4.014400482177734 0.3000001311302185 4.005900382995605 L 0.3000001311302185 0.7767003178596497 C 0.3000001311302185 0.5138503313064575 0.5138501524925232 0.3000003099441528 0.7767001390457153 0.3000003099441528 C 1.040050148963928 0.3000003099441528 1.254300117492676 0.5138503313064575 1.254300117492676 0.7767003178596497 L 1.254300117492676 2.688300371170044 L 1.254300117492676 2.988300323486328 L 1.55430006980896 2.988300323486328 L 1.915200114250183 2.988300323486328 L 2.215200185775757 2.988300323486328 L 2.215200185775757 2.688300371170044 L 2.215200185775757 0.7767003178596497 C 2.215200185775757 0.5138503313064575 2.429050207138062 0.3000003099441528 2.691900014877319 0.3000003099441528 C 2.955250024795532 0.3000003099441528 3.169500112533569 0.5138503313064575 3.169500112533569 0.7767003178596497 L 3.169500112533569 2.688300371170044 L 3.169500112533569 2.988300323486328 L 3.469500064849854 2.988300323486328 L 3.794400215148926 2.988300323486328 L 4.094399929046631 2.988300323486328 L 4.094399929046631 2.688300371170044 L 4.094399929046631 0.7767003178596497 C 4.094399929046631 0.5138503313064575 4.308249950408936 0.3000003099441528 4.571100234985352 0.3000003099441528 C 4.833950042724609 0.3000003099441528 5.047800064086914 0.5138503313064575 5.047800064086914 0.7767003178596497 L 5.047800064086914 3.796200275421143 C 5.047800064086914 3.822930335998535 5.045540332794189 3.849900245666504 5.04109001159668 3.876340389251709 L 5.033810138702393 3.91959023475647 L 5.039220333099365 3.963110208511353 C 5.044909954071045 4.008980274200439 5.047800064086914 4.055770397186279 5.047800064086914 4.102200508117676 C 5.047800064086914 4.716410160064697 4.548110008239746 5.216100215911865 3.933900117874146 5.216100215911865 L 3.540970087051392 5.216100215911865 L 3.231090068817139 5.216100215911865 L 3.241130113601685 5.525810241699219 C 3.241330146789551 5.53216028213501 3.24150013923645 5.538510322570801 3.24150013923645 5.544900417327881 L 3.24150013923645 7.894800186157227 C 3.24150013923645 8.207779884338379 2.98688006401062 8.462400436401367 2.673900127410889 8.462400436401367 Z" stroke="none"/>
      <path d="M 2.673900127410889 8.162400245666504 C 2.821460008621216 8.162400245666504 2.941500186920166 8.042360305786133 2.941500186920166 7.894800186157227 L 2.941500186920166 5.544900417327881 L 2.941280126571655 5.535530090332031 L 2.921220064163208 4.91610050201416 L 3.540970087051392 4.91610050201416 L 3.933900117874146 4.91610050201416 C 4.382689952850342 4.91610050201416 4.747800350189209 4.550990104675293 4.747800350189209 4.102200508117676 C 4.747800350189209 4.068080425262451 4.745680332183838 4.033730506896973 4.741499900817871 4.000080108642578 L 4.730690002441406 3.913040399551392 L 4.745250225067139 3.826550245285034 C 4.746940135955811 3.816510200500488 4.747800350189209 3.806300401687622 4.747800350189209 3.796200275421143 L 4.747800350189209 0.7767003178596497 C 4.747800350189209 0.679270327091217 4.668529987335205 0.6000003218650818 4.571100234985352 0.6000003218650818 C 4.47367000579834 0.6000003218650818 4.394400119781494 0.679270327091217 4.394400119781494 0.7767003178596497 L 4.394400119781494 2.688300371170044 L 4.394400119781494 3.288300275802612 L 3.794400215148926 3.288300275802612 L 3.469500064849854 3.288300275802612 L 2.869500160217285 3.288300275802612 L 2.869500160217285 2.688300371170044 L 2.869500160217285 0.7767003178596497 C 2.869500160217285 0.679270327091217 2.789830207824707 0.6000003218650818 2.691900014877319 0.6000003218650818 C 2.594470024108887 0.6000003218650818 2.515200138092041 0.679270327091217 2.515200138092041 0.7767003178596497 L 2.515200138092041 2.688300371170044 L 2.515200138092041 3.288300275802612 L 1.915200114250183 3.288300275802612 L 1.55430006980896 3.288300275802612 L 0.9543001055717468 3.288300275802612 L 0.9543001055717468 2.688300371170044 L 0.9543001055717468 0.7767003178596497 C 0.9543001055717468 0.679270327091217 0.8746301531791687 0.6000003218650818 0.7767001390457153 0.6000003218650818 C 0.6792701482772827 0.6000003218650818 0.6000001430511475 0.679270327091217 0.6000001430511475 0.7767003178596497 L 0.6000001430511475 4.005900382995605 C 0.6000001430511475 4.009200096130371 0.6000901460647583 4.01248025894165 0.6002601385116577 4.015740394592285 L 0.6016601324081421 4.042820453643799 L 0.6006101369857788 4.069920539855957 C 0.6002001166343689 4.080620288848877 0.6000001430511475 4.091400146484375 0.6000001430511475 4.102200508117676 C 0.6000001430511475 4.550990104675293 0.9651101231575012 4.91610050201416 1.413900136947632 4.91610050201416 L 1.807720184326172 4.91610050201416 L 2.427470207214355 4.91610050201416 L 2.407410144805908 5.535530090332031 L 2.40720009803772 5.544900417327881 L 2.40720009803772 7.894800186157227 C 2.40720009803772 8.042360305786133 2.526840209960938 8.162400245666504 2.673900127410889 8.162400245666504 M 2.673900127410889 8.76240062713623 C 2.195100069046021 8.76240062713623 1.807200074195862 8.374500274658203 1.807200074195862 7.894800186157227 L 1.807200074195862 5.544900417327881 C 1.807200074195862 5.535260200500488 1.80741012096405 5.525670528411865 1.807720184326172 5.516100406646729 L 1.413900136947632 5.516100406646729 C 0.6327001452445984 5.516100406646729 1.274108853976941e-07 4.882500171661377 1.274108853976941e-07 4.102200508117676 C 1.274108853976941e-07 4.0836501121521 0.0003501274040900171 4.065140247344971 0.001060127397067845 4.046760082244873 C 0.0003601274220272899 4.03324031829834 1.274108853976941e-07 4.019600391387939 1.274108853976941e-07 4.005900382995605 L 1.274108853976941e-07 0.7767003178596497 C 1.274108853976941e-07 0.3474003076553345 0.3474001288414001 3.1356810836769e-07 0.7767001390457153 3.1356810836769e-07 C 1.206000089645386 3.1356810836769e-07 1.55430006980896 0.3474003076553345 1.55430006980896 0.7767003178596497 L 1.55430006980896 2.688300371170044 L 1.915200114250183 2.688300371170044 L 1.915200114250183 0.7767003178596497 C 1.915200114250183 0.3474003076553345 2.263500213623047 3.1356810836769e-07 2.691900014877319 3.1356810836769e-07 C 3.121200084686279 3.1356810836769e-07 3.469500064849854 0.3474003076553345 3.469500064849854 0.7767003178596497 L 3.469500064849854 2.688300371170044 L 3.794400215148926 2.688300371170044 L 3.794400215148926 0.7767003178596497 C 3.794400215148926 0.3474003076553345 4.141799926757813 3.1356810836769e-07 4.571100234985352 3.1356810836769e-07 C 5.000400066375732 3.1356810836769e-07 5.347800254821777 0.3474003076553345 5.347800254821777 0.7767003178596497 L 5.347800254821777 3.796200275421143 C 5.347800254821777 3.840480327606201 5.344039916992188 3.88390040397644 5.336930274963379 3.926140308380127 C 5.344089984893799 3.983800411224365 5.347800254821777 4.042600154876709 5.347800254821777 4.102200508117676 C 5.347800254821777 4.882500171661377 4.715100288391113 5.516100406646729 3.933900117874146 5.516100406646729 L 3.540970087051392 5.516100406646729 C 3.541280031204224 5.525670528411865 3.541500091552734 5.535260200500488 3.541500091552734 5.544900417327881 L 3.541500091552734 7.894800186157227 C 3.541500091552734 8.374500274658203 3.152700185775757 8.76240062713623 2.673900127410889 8.76240062713623 Z" stroke="none" fill="#707070"/>
    </g>
    <g id="사각형_65" data-name="사각형 65" transform="matrix(0.891, -0.454, 0.454, 0.891, 47.981, 45.681)" fill="#f3ca57" stroke="#616161" stroke-width="0.6">
      <rect width="3.793" height="11.38" rx="1.897" stroke="none"/>
      <rect x="0.3" y="0.3" width="3.193" height="10.78" rx="1.597" fill="none"/>
    </g>
    <g id="합치기_15" data-name="합치기 15" transform="matrix(0.985, 0.174, -0.174, 0.985, 10.177, 15.853)" fill="#fff">
      <path d="M 5.14438009262085 8.69389820098877 C 4.575010299682617 8.69389820098877 4.096660137176514 8.284278869628906 4.006979942321777 7.719918251037598 L 3.760460138320923 6.16364860534668 L 3.713520050048828 5.867348670959473 L 3.417210102081299 5.914278507232666 L 1.63696014881134 6.196288585662842 C 1.576290130615234 6.205908298492432 1.514710187911987 6.210788249969482 1.453880190849304 6.210788249969482 C 0.8832101225852966 6.210838317871094 0.4039401412010193 5.800508499145508 0.314300149679184 5.235118389129639 C 0.2659301459789276 4.930368423461914 0.3392101526260376 4.625128269195557 0.5206401348114014 4.375588417053223 C 0.7021401524543762 4.125938415527344 0.9702101349830627 3.961798429489136 1.275480151176453 3.913398504257202 L 3.055590152740479 3.631418466567993 L 3.351890087127686 3.584478378295898 L 3.304960250854492 3.288168430328369 L 3.043110132217407 1.63515841960907 C 2.944070100784302 1.00674843788147 3.374470233917236 0.4140984714031219 4.002580165863037 0.3142784833908081 C 4.062469959259033 0.3048284649848938 4.123610019683838 0.3000184893608093 4.183979988098145 0.3000184893608093 C 4.754610061645508 0.3000184893608093 5.233370304107666 0.7094084620475769 5.322370052337646 1.273448467254639 L 5.584280014038086 2.927098512649536 L 5.63122034072876 3.223408460617065 L 5.927530288696289 3.176478385925293 L 7.451240062713623 2.935108423233032 C 7.511889934539795 2.925478458404541 7.573379993438721 2.92059850692749 7.634099960327148 2.92059850692749 C 8.204890251159668 2.92059850692749 8.684249877929688 3.330578565597534 8.773910522460938 3.895428419113159 C 8.872960090637207 4.52466869354248 8.441780090332031 5.118148326873779 7.812670230865479 5.218008518218994 L 6.289080142974854 5.459358692169189 L 5.992780208587646 5.506298542022705 L 6.03971004486084 5.802598476409912 L 6.286290168762207 7.359428405761719 C 6.334670066833496 7.663848400115967 6.261569976806641 7.968648433685303 6.080490112304688 8.217818260192871 C 5.899340152740479 8.467098236083984 5.631700038909912 8.63101863861084 5.326869964599609 8.679408073425293 C 5.266350269317627 8.689028739929199 5.204970359802246 8.69389820098877 5.14438009262085 8.69389820098877 Z" stroke="none"/>
      <path d="M 5.14438009262085 8.393898010253906 C 5.189249992370605 8.393898010253906 5.234790325164795 8.390278816223145 5.279839992523193 8.383118629455566 C 5.505569934844971 8.347288131713867 5.70373010635376 8.225948333740234 5.837810039520264 8.041458129882813 C 5.971740245819092 7.857168674468994 6.025800228118896 7.631728649139404 5.989990234375 7.406358242034912 L 5.743410110473633 5.849528312683105 L 5.649549961090088 5.256928443908691 L 6.242140293121338 5.163058280944824 L 7.765640258789063 4.921718597412109 C 8.231579780578613 4.847758293151855 8.550920486450195 4.408128261566162 8.477620124816895 3.942458391189575 C 8.412300109863281 3.530928373336792 8.049659729003906 3.220598459243774 7.634099960327148 3.220598459243774 C 7.589100360870361 3.220598459243774 7.543430328369141 3.224228382110596 7.498179912567139 3.231408357620239 L 5.974470138549805 3.472778558731079 L 5.381840229034424 3.566658496856689 L 5.287980079650879 2.974028587341309 L 5.02603006362915 1.320208430290222 C 4.961250305175781 0.9096284508705139 4.599250316619873 0.6000185012817383 4.183979988098145 0.6000185012817383 C 4.139200210571289 0.6000185012817383 4.093790054321289 0.6035984754562378 4.049660205841064 0.6105584502220154 C 3.584720134735107 0.6844484806060791 3.266130208969116 1.123238444328308 3.339410066604614 1.588228464126587 L 3.601260185241699 3.241238594055176 L 3.69514012336731 3.833848476409912 L 3.102520227432251 3.9277184009552 L 1.322460174560547 4.209698677062988 C 1.096280097961426 4.245558261871338 0.8977001309394836 4.367118358612061 0.7632801532745361 4.551998615264893 C 0.6290201544761658 4.736668586730957 0.5747901797294617 4.962558269500732 0.6106001734733582 5.188138484954834 C 0.6769901514053345 5.606908321380615 1.0316401720047 5.910828590393066 1.453910112380981 5.910788536071777 C 1.499020099639893 5.910788536071777 1.544790148735046 5.907158374786377 1.590020179748535 5.899988651275635 L 3.370270252227783 5.617978572845459 L 3.962890148162842 5.52409839630127 L 4.056760311126709 6.116708278656006 L 4.30327033996582 7.672838687896729 C 4.368590354919434 8.083908081054688 4.730190277099609 8.393898010253906 5.14438009262085 8.393898010253906 M 5.14438009262085 8.993898391723633 C 4.442019939422607 8.993898391723633 3.824440240859985 8.482758522033691 3.710700035095215 7.766998291015625 L 3.464150190353394 6.210588455200195 L 1.683900117874146 6.492598533630371 C 1.606632232666016 6.504849433898926 1.529714584350586 6.510787010192871 1.453906178474426 6.510793209075928 C 0.7500258684158325 6.510850429534912 0.131749302148819 5.999530792236328 0.01800015009939671 5.282098293304443 C -0.1079998463392258 4.488298416137695 0.4338001608848572 3.743098497390747 1.228500127792358 3.617098569869995 L 3.008650064468384 3.335108518600464 L 2.746800184249878 1.682098507881165 C 2.621700048446655 0.8882984519004822 3.162600040435791 0.1439984738826752 3.95550012588501 0.01799847558140755 C 4.032254219055176 0.005888575688004494 4.108634948730469 1.566314676892944e-05 4.183976173400879 1.566314676892944e-05 C 4.886936187744141 1.566314676892944e-05 5.505710124969482 0.5105525851249695 5.61870002746582 1.226698517799377 L 5.880589962005615 2.880168437957764 L 7.404300212860107 2.638798475265503 C 7.481480598449707 2.626547574996948 7.558343410491943 2.62060284614563 7.634096145629883 2.62060284614563 C 8.337456703186035 2.62060284614563 8.956451416015625 3.131778955459595 9.070199966430664 3.848398447036743 C 9.195300102233887 4.6430983543396 8.653500556945801 5.388298511505127 7.859700202941895 5.514298439025879 L 6.336019992828369 5.755668640136719 L 6.582600116729736 7.312498569488525 C 6.708600044250488 8.105398178100586 6.167700290679932 8.849698066711426 5.373899936676025 8.975698471069336 C 5.296760082244873 8.987958908081055 5.220070362091064 8.993898391723633 5.14438009262085 8.993898391723633 Z" stroke="none" fill="#707070"/>
    </g>
    <rect id="사각형_69" data-name="사각형 69" width="1.836" height="4.59" rx="0.918" transform="translate(38.367 7.227) rotate(-31)" fill="#fff"/>
    <rect id="사각형_70" data-name="사각형 70" width="1.836" height="4.59" rx="0.918" transform="translate(43.971 5.477) rotate(-3)" fill="#fff"/>
    <rect id="사각형_71" data-name="사각형 71" width="1.836" height="4.59" rx="0.918" transform="matrix(0.883, 0.469, -0.469, 0.883, 49.947, 6.264)" fill="#fff"/>
  </g>
</svg>
