<svg xmlns="http://www.w3.org/2000/svg" width="100" height="50" viewBox="0 0 312 212">
  <g id="사각형_1" data-name="사각형 1" fill="#23b6ac" stroke="#707070" stroke-width="1">
    <rect width="312" height="212" rx="50" stroke="none"/>
    <rect x="0.5" y="0.5" width="311" height="211" rx="49.5" fill="none"/>
  </g>
  <g id="패스_1" data-name="패스 1" transform="translate(18 19)" fill="#fff">
    <path d="M 35 71.5 C 30.34407997131348 71.5 25.82755088806152 70.5621337890625 21.57588958740234 68.71244812011719 C 17.46806907653809 66.92534637451172 13.77853012084961 64.36660766601562 10.60976028442383 61.1072998046875 C 7.440040111541748 57.84701919555664 4.951379776000977 54.05031967163086 3.212899923324585 49.82266998291016 C 1.412750005722046 45.44503021240234 0.5 40.79441833496094 0.5 36 C 0.5 31.20557975769043 1.412750005722046 26.55496978759766 3.212899923324585 22.17733001708984 C 4.951379776000977 17.94968032836914 7.440040111541748 14.15297985076904 10.60976028442383 10.8927001953125 C 13.77853012084961 7.633389949798584 17.46806907653809 5.074649810791016 21.57588958740234 3.28754997253418 C 25.82755088806152 1.437870025634766 30.34407997131348 0.5 35 0.5 C 39.65591812133789 0.5 44.17245101928711 1.437870025634766 48.42411041259766 3.28754997253418 C 52.53192901611328 5.074649810791016 56.22146987915039 7.633389949798584 59.39023971557617 10.8927001953125 C 62.55995941162109 14.15297985076904 65.04862213134766 17.94968032836914 66.78710174560547 22.17733001708984 C 68.58724975585938 26.55496978759766 69.5 31.20557975769043 69.5 36 C 69.5 40.79441833496094 68.58724975585938 45.44503021240234 66.78710174560547 49.82266998291016 C 65.04862213134766 54.05031967163086 62.55995941162109 57.84701919555664 59.39023971557617 61.1072998046875 C 56.22146987915039 64.36660766601562 52.53192901611328 66.92534637451172 48.42411041259766 68.71244812011719 C 44.17245101928711 70.5621337890625 39.65591812133789 71.5 35 71.5 Z" stroke="none"/>
    <path d="M 35 1 C 30.41312026977539 1 25.96371078491211 1.923896789550781 21.77534866333008 3.746040344238281 C 17.72748184204102 5.507057189941406 14.09144973754883 8.02880859375 10.96826171875 11.24123001098633 C 7.843158721923828 14.45561981201172 5.389457702636719 18.19903945922852 3.675331115722656 22.36748886108398 C 1.900108337402344 26.68450164794922 1 31.27114105224609 1 36 C 1 40.72885894775391 1.900108337402344 45.31549835205078 3.675331115722656 49.63250732421875 C 5.389457702636719 53.80096054077148 7.843158721923828 57.54438018798828 10.96826171875 60.75876998901367 C 14.09144973754883 63.97119140625 17.72748184204102 66.49294281005859 21.77534866333008 68.25395965576172 C 25.96371078491211 70.07610321044922 30.41312026977539 71 35 71 C 39.58687973022461 71 44.03628921508789 70.07610321044922 48.22464752197266 68.25395965576172 C 52.27252197265625 66.49294281005859 55.90855026245117 63.97119140625 59.03173828125 60.75876998901367 C 62.15684127807617 57.54438018798828 64.61054229736328 53.80096054077148 66.32466888427734 49.63250732421875 C 68.09989166259766 45.31549835205078 69 40.72885894775391 69 36 C 69 31.27114105224609 68.09989166259766 26.68450164794922 66.32466888427734 22.36748886108398 C 64.61054229736328 18.19903945922852 62.15684127807617 14.45561981201172 59.03173828125 11.24123001098633 C 55.90855026245117 8.02880859375 52.27252197265625 5.507057189941406 48.22464752197266 3.746040344238281 C 44.03628921508789 1.923896789550781 39.58687973022461 1 35 1 M 35 0 C 54.32995986938477 0 70 16.11774826049805 70 36 C 70 55.88224792480469 54.32995986938477 72 35 72 C 15.67004013061523 72 0 55.88224792480469 0 36 C 0 16.11774826049805 15.67004013061523 0 35 0 Z" stroke="none" fill="#fff"/>
  </g>
  <g id="타원_2" data-name="타원 2" transform="translate(121 19)" fill="#fff" stroke="#fff" stroke-width="1">
    <circle cx="36" cy="36" r="36" stroke="none"/>
    <circle cx="36" cy="36" r="35.5" fill="none"/>
  </g>
  <g id="타원_3" data-name="타원 3" transform="translate(225 19)" fill="#fff" stroke="#fff" stroke-width="1">
    <ellipse cx="34" cy="36" rx="34" ry="36" stroke="none"/>
    <ellipse cx="34" cy="36" rx="33.5" ry="35.5" fill="none"/>
  </g>
  <text id="수식판" transform="translate(56 185)" fill="#fff" font-size="80" font-family="BMJUAOTF, BM JUA_OTF"><tspan x="0" y="0">수식판</tspan></text>
  <line id="선_1" data-name="선 1" x2="256" y2="1" transform="translate(28.5 108.5)" fill="none" stroke="#fff" stroke-width="2"/>
  <text id="_" data-name="+" transform="translate(37 71)" fill="#020202" font-size="60" font-family="BMJUAOTF, BM JUA_OTF"><tspan x="0" y="0">+</tspan></text>
  <text id="_-" data-name="-" transform="translate(143 75)" fill="#020202" font-size="60" font-family="BMJUAOTF, BM JUA_OTF"><tspan x="0" y="0">-</tspan></text>
  <text id="x" transform="translate(244 67)" fill="#020202" font-size="60" font-family="BMJUAOTF, BM JUA_OTF"><tspan x="0" y="0">x</tspan></text>
</svg>
