<svg xmlns="http://www.w3.org/2000/svg" width="47" height="56" viewBox="-10 -10 47 56" id="eq-8" x="600" y="504"><path fill="#555" fill-rule="evenodd" d="M8 14h1v1H8v-1zm-2 0h1v1H6v-1zm-2 0h1v1H4v-1zm6 0h1v1h-1v-1zm2 0h1v1h-1v-1zm2 0h1v1h-1v-1zm2 0h1v1h-1v-1zm-6 12h1v1h-1v-1zm2 0h1v1h-1v-1zm2 0h1v1h-1v-1zm2 0h1v1h-1v-1zm2-12h1v1h-1v-1zm2 0h1v1h-1v-1zM4 16h1v1H4v-1zm18 0h1v1h-1v-1zM4 18h1v1H4v-1zm18 0h1v1h-1v-1zM4 20h1v1H4v-1zm18 0h1v1h-1v-1zM8 26h1v1H8v-1zm-4-4h1v1H4v-1zm14 4h1v1h-1v-1zm4-4h1v1h-1v-1zM6 26h1v1H6v-1zm-2-2h1v1H4v-1zm16 2h1v1h-1v-1zm2-12h1v1h-1v-1zm0 10h1v1h-1v-1zM4 26h1v1H4v-1zm18 0h1v1h-1v-1zM9 10.5c0-.828.666-1.5 1.5-1.5.828 0 1.5.666 1.5 1.5 0 .828-.666 1.5-1.5 1.5-.828 0-1.5-.666-1.5-1.5zm6 0c0-.828.666-1.5 1.5-1.5.828 0 1.5.666 1.5 1.5 0 .828-.666 1.5-1.5 1.5-.828 0-1.5-.666-1.5-1.5z"/></svg>