<svg xmlns="http://www.w3.org/2000/svg" width="28" height="32" viewBox="-10 -10 28 32" id="symbol-3" x="688" y="268"><g fill="none" fill-rule="evenodd"><path d="M-8-6h24v24H-8z"/><path fill="#333" d="M7.916 9.8c-.758.762-1.492 1.319-2.204 1.671-.711.353-1.427.529-2.146.529-1.124 0-1.999-.27-2.626-.808C.313 10.653 0 9.9 0 8.932c0-.729.213-1.366.638-1.913.425-.548 1.05-.97 1.873-1.268v-.13C1.813 5.399 1.28 5.048.91 4.57.545 4.09.36 3.52.36 2.862c0-.412.083-.793.25-1.143a2.48 2.48 0 0 1 .748-.907c.332-.255.75-.454 1.25-.597C3.11.072 3.695 0 4.359 0c.36 0 .693.034.999.103.305.069.581.153.83.254.248.1.466.207.654.322.188.115.345.22.47.318.169.132.31.278.425.439.115.16.192.32.233.48a.845.845 0 0 1 0 .452.626.626 0 0 1-.265.348.809.809 0 0 1-.32.125.613.613 0 0 1-.29-.026.774.774 0 0 1-.421-.374l-.22-.417a2.798 2.798 0 0 0-.418-.554c-.18-.19-.43-.355-.752-.499C4.96.828 4.563.756 4.089.756c-.654 0-1.18.187-1.578.56-.387.372-.581.887-.581 1.546.005.447.072.821.2 1.122.128.301.32.542.577.722.256.18.578.31.965.387.387.077.845.116 1.374.116h.564v.929h-.924c-.48 0-.853.028-1.12.085a3.528 3.528 0 0 0-.397.108 2.524 2.524 0 0 0-.372.159 1.97 1.97 0 0 0-.863.825c-.204.367-.307.78-.307 1.238 0 .728.197 1.278.59 1.65.392.373.983.56 1.774.56.594 0 1.167-.134 1.717-.4.55-.267 1.115-.678 1.693-1.234l.515.67z"/></g></svg>