<svg xmlns="http://www.w3.org/2000/svg" width="47" height="56" viewBox="-10 -10 47 56" id="eq-6" x="600" y="392"><path fill="#555" fill-rule="evenodd" d="M4.595 27c-.746 0-1.365-.202-1.857-.607-.508-.44-.762-1.006-.762-1.697v-3.232c0-.702-.159-1.28-.476-1.732a1.57 1.57 0 0 0-.452-.455 2.073 2.073 0 0 0-.596-.26c-.174-.047-.293-.094-.357-.142-.063-.048-.095-.143-.095-.286v-.178c0-.131.044-.22.131-.268.087-.048.202-.095.345-.143.46-.131.802-.375 1.024-.732.317-.453.476-1.042.476-1.768v-3.179c0-.702.262-1.267.786-1.696h-.024C3.198 10.208 3.825 10 4.62 10h.929c.222 0 .353.012.392.036.04.024.06.119.06.285v.286c0 .155-.02.244-.06.268-.04.024-.17.036-.392.036h-.786c-.778 0-1.167.589-1.167 1.768v3.142c0 1.381-.738 2.274-2.214 2.679 1.476.44 2.214 1.357 2.214 2.75v3.071c0 1.179.39 1.768 1.167 1.768h.833c.207 0 .326.012.357.036.032.024.048.113.048.268v.303c0 .155-.016.244-.048.268-.031.024-.158.036-.38.036h-.977zm17.81-17c.746 0 1.365.202 1.857.607.508.44.762 1.006.762 1.697v3.232c0 .702.159 1.28.476 1.732.127.19.278.342.452.455.175.113.373.2.596.26.174.047.293.094.357.142.063.048.095.143.095.286v.178c0 .131-.044.22-.131.268a2.171 2.171 0 0 1-.345.143c-.46.131-.802.375-1.024.732-.317.453-.476 1.042-.476 1.768v3.179c0 .702-.262 1.267-.786 1.696h.024c-.46.417-1.087.625-1.881.625h-.929c-.222 0-.353-.012-.392-.036-.04-.024-.06-.119-.06-.285v-.286c0-.155.02-.244.06-.268.04-.024.17-.036.392-.036h.786c.778 0 1.167-.589 1.167-1.768V21.18c0-1.381.738-2.274 2.214-2.679-1.476-.44-2.214-1.357-2.214-2.75V12.68c0-1.179-.39-1.768-1.167-1.768h-.833c-.207 0-.326-.012-.357-.036-.032-.024-.048-.113-.048-.268v-.303c0-.155.016-.244.048-.268.031-.024.158-.036.38-.036h.977zM7 13h1v1H7v-1zm2 0h1v1H9v-1zm2 0h1v1h-1v-1zm2 0h1v1h-1v-1zm2 0h1v1h-1v-1zM9 23h1v1H9v-1zm2 0h1v1h-1v-1zm2 0h1v1h-1v-1zm2 0h1v1h-1v-1zm2-10h1v1h-1v-1zm2 0h1v1h-1v-1zm0 8h1v1h-1v-1zm0 2h1v1h-1v-1zM7 15h1v1H7v-1zm12 0h1v1h-1v-1zM7 17h1v1H7v-1zm12 0h1v1h-1v-1zM7 19h1v1H7v-1zm0 2h1v1H7v-1zm12-2h1v1h-1v-1zM7 23h1v1H7v-1zm10 0h1v1h-1v-1z"/></svg>