<svg xmlns="http://www.w3.org/2000/svg" width="50" height="50" viewBox="0 0 50 50">
  <path id="패스_6" data-name="패스 6" d="M8.509,60A4.165,4.165,0,0,1,5.07,58.215a8.282,8.282,0,0,1-1.411-4.991V43.718a12.688,12.688,0,0,0-.881-5.094,4.28,4.28,0,0,0-.837-1.338,3.36,3.36,0,0,0-1.1-.765A1.8,1.8,0,0,1,.176,36.1,1.4,1.4,0,0,1,0,35.262v-.524a1.02,1.02,0,0,1,.243-.788,3.406,3.406,0,0,1,.639-.421,3.7,3.7,0,0,0,1.9-2.153,13.015,13.015,0,0,0,.881-5.2v-9.35a7.962,7.962,0,0,1,1.456-4.988H5.07A4.023,4.023,0,0,1,8.556,10h1.72a1.371,1.371,0,0,1,.726.106q.111.106.111.838v.841c0,.456-.037.718-.111.788a1.376,1.376,0,0,1-.726.106H8.82q-2.161,0-2.161,5.2v9.241q0,6.093-4.1,7.879,4.1,1.941,4.1,8.088v9.032q0,5.2,2.161,5.2h1.543q.575,0,.661.106a1.82,1.82,0,0,1,.089.788v.891a1.82,1.82,0,0,1-.089.788c-.057.071-.293.106-.7.106H8.511ZM41.491,10a4.165,4.165,0,0,1,3.439,1.785,8.282,8.282,0,0,1,1.411,4.991v9.506a12.689,12.689,0,0,0,.881,5.094,4.3,4.3,0,0,0,.837,1.338,3.4,3.4,0,0,0,1.1.765,1.8,1.8,0,0,1,.661.418,1.4,1.4,0,0,1,.176.841v.524a1.02,1.02,0,0,1-.243.788,3.428,3.428,0,0,1-.639.421,3.7,3.7,0,0,0-1.9,2.153,13.015,13.015,0,0,0-.881,5.2v9.35a7.961,7.961,0,0,1-1.456,4.988h.044A4.023,4.023,0,0,1,41.446,60h-1.72A1.371,1.371,0,0,1,39,59.894q-.111-.106-.111-.838v-.841c0-.456.037-.718.111-.788a1.376,1.376,0,0,1,.726-.106h1.456q2.161,0,2.161-5.2V42.882q0-6.093,4.1-7.879-4.1-1.941-4.1-8.088V17.882q0-5.2-2.161-5.2H39.639q-.575,0-.661-.106a1.82,1.82,0,0,1-.089-.788V10.9a1.82,1.82,0,0,1,.089-.788c.057-.071.293-.106.7-.106h1.809ZM12.963,18.824h1.852v2.941H12.963Zm3.7,0h1.852v2.941H16.667Zm3.7,0h1.852v2.941H20.37Zm3.7,0h1.852v2.941H24.074Zm3.7,0H29.63v2.941H27.778ZM16.667,48.235h1.852v2.941H16.667Zm3.7,0h1.852v2.941H20.37Zm3.7,0h1.852v2.941H24.074Zm3.7,0H29.63v2.941H27.778Zm3.7-29.412h1.852v2.941H31.481Zm3.7,0h1.852v2.941H35.185Zm0,23.529h1.852v2.941H35.185Zm0,5.882h1.852v2.941H35.185ZM12.963,24.706h1.852v2.941H12.963Zm22.222,0h1.852v2.941H35.185ZM12.963,30.588h1.852v2.941H12.963Zm22.222,0h1.852v2.941H35.185ZM12.963,36.471h1.852v2.941H12.963Zm0,5.882h1.852v2.941H12.963Zm22.222-5.882h1.852v2.941H35.185ZM12.963,48.235h1.852v2.941H12.963Zm18.519,0h1.852v2.941H31.481Z" transform="translate(0 -10)" fill="#555" fill-rule="evenodd"/>
</svg>