<svg xmlns="http://www.w3.org/2000/svg" width="30" height="30" viewBox="-10 -10 30 30" id="symbol-2" x="722"><g fill="none" fill-rule="evenodd"><path d="M-7-7h24v24H-7z"/><path fill="#333" d="M10 9.06c-.673.627-1.346.94-2.019.94-.962 0-1.54-.944-1.736-2.831h-.103C5.28 9.056 4.223 10 2.972 10c-.937 0-1.667-.415-2.189-1.244S0 6.744 0 5.207C0 3.623.374 2.36 1.123 1.416 1.87.472 2.777 0 3.84 0c.792 0 1.413.202 1.863.607.45.404.838 1.082 1.165 2.032h.141L7.67.172h1.548v.495c-.453.749-1.057 2.134-1.811 4.156.132 1.362.286 2.386.462 3.074.176.687.459 1.031.849 1.031.258 0 .563-.155.915-.465L10 9.06zM6.094 4.954c-.17-1.516-.42-2.588-.75-3.215-.33-.627-.806-.94-1.429-.94-.667 0-1.198.39-1.594 1.168-.396.778-.595 1.815-.595 3.109 0 2.487.576 3.73 1.727 3.73 1.226 0 2.107-1.283 2.641-3.852z"/></g></svg>