<svg xmlns="http://www.w3.org/2000/svg" width="54" height="56" viewBox="-10 -10 54 56" id="eq-12" x="404" y="521"><g fill="#555" fill-rule="evenodd"><path d="M2 28h31v1H1V7h1v21z"/><path d="M6 7h1v1H6V7zm0 2h1v1H6V9zm2-2h1v1H8V7zm2 0h1v1h-1V7zm2 0h1v1h-1V7zm0 2h1v1h-1V9zm-6 2h1v1H6v-1zm6 0h1v1h-1v-1zm-6 2h1v1H6v-1zm2 0h1v1H8v-1zm2 0h1v1h-1v-1zm2 0h1v1h-1v-1zm-6 4h1v1H6v-1zm0 2h1v1H6v-1zm2-2h1v1H8v-1zm2 0h1v1h-1v-1zm2 0h1v1h-1v-1zm0 2h1v1h-1v-1zm-6 2h1v1H6v-1zm6 0h1v1h-1v-1zm-6 2h1v1H6v-1zm2 0h1v1H8v-1zm2 0h1v1h-1v-1zm2 0h1v1h-1v-1zm6-16h1v1h-1V7zm-2 0h1v1h-1V7zm0 2h1v1h-1V9zm4-2h1v1h-1V7zm2 0h1v1h-1V7zm0 2h1v1h-1V9zm-6 2h1v1h-1v-1zm6 0h1v1h-1v-1zm-4 2h1v1h-1v-1zm-2 0h1v1h-1v-1zm4 0h1v1h-1v-1zm2 0h1v1h-1v-1zm-4 4h1v1h-1v-1zm-2 0h1v1h-1v-1zm0 2h1v1h-1v-1zm4-2h1v1h-1v-1zm2 0h1v1h-1v-1zm0 2h1v1h-1v-1zm-6 2h1v1h-1v-1zm6 0h1v1h-1v-1zm-4 2h1v1h-1v-1zm-2 0h1v1h-1v-1zm4 0h1v1h-1v-1zm2 0h1v1h-1v-1zm6-16h1v1h-1V7zm-2 0h1v1h-1V7zm0 2h1v1h-1V9zm4-2h1v1h-1V7zm2 0h1v1h-1V7zm0 2h1v1h-1V9zm-6 2h1v1h-1v-1zm6 0h1v1h-1v-1zm-4 2h1v1h-1v-1zm-2 0h1v1h-1v-1zm4 0h1v1h-1v-1zm2 0h1v1h-1v-1zm-4 4h1v1h-1v-1zm-2 0h1v1h-1v-1zm0 2h1v1h-1v-1zm4-2h1v1h-1v-1zm2 0h1v1h-1v-1zm0 2h1v1h-1v-1zm-6 2h1v1h-1v-1zm6 0h1v1h-1v-1zm-4 2h1v1h-1v-1zm-2 0h1v1h-1v-1zm4 0h1v1h-1v-1zm2 0h1v1h-1v-1z"/></g><svg xmlns="http://www.w3.org/2000/svg" width="54" height="56" viewBox="-10 -10 54 56" id="eq-11" x="296" y="521"><path fill="#555" fill-rule="evenodd" d="M6 7h1v1H6V7zm2 0h1v1H8V7zm2 0h1v1h-1V7zm2 0h1v1h-1V7zm2 0h1v1h-1V7zM6 9h1v1H6V9zm8 0h1v1h-1V9zm-8 2h1v1H6v-1zm8 0h1v1h-1v-1zm-8 2h1v1H6v-1zm8 0h1v1h-1v-1zm-8 2h1v1H6v-1zm2 0h1v1H8v-1zm2 0h1v1h-1v-1zm2 0h1v1h-1v-1zm2 0h1v1h-1v-1zm5-8h1v1h-1V7zm2 0h1v1h-1V7zm2 0h1v1h-1V7zm2 0h1v1h-1V7zm2 0h1v1h-1V7zm-8 2h1v1h-1V9zm8 0h1v1h-1V9zm-8 2h1v1h-1v-1zm8 0h1v1h-1v-1zm-8 2h1v1h-1v-1zm8 0h1v1h-1v-1zm-8 2h1v1h-1v-1zm2 0h1v1h-1v-1zm2 0h1v1h-1v-1zm2 0h1v1h-1v-1zm2 0h1v1h-1v-1zM6 20h1v1H6v-1zm2 0h1v1H8v-1zm2 0h1v1h-1v-1zm2 0h1v1h-1v-1zm2 0h1v1h-1v-1zm-8 2h1v1H6v-1zm8 0h1v1h-1v-1zm-8 2h1v1H6v-1zm8 0h1v1h-1v-1zm-8 2h1v1H6v-1zm8 0h1v1h-1v-1zm-8 2h1v1H6v-1zm2 0h1v1H8v-1zm2 0h1v1h-1v-1zm2 0h1v1h-1v-1zm2 0h1v1h-1v-1zm5-8h1v1h-1v-1zm2 0h1v1h-1v-1zm2 0h1v1h-1v-1zm2 0h1v1h-1v-1zm2 0h1v1h-1v-1zm-8 2h1v1h-1v-1zm8 0h1v1h-1v-1zm-8 2h1v1h-1v-1zm8 0h1v1h-1v-1zm-8 2h1v1h-1v-1zm8 0h1v1h-1v-1zm-8 2h1v1h-1v-1zm2 0h1v1h-1v-1zm2 0h1v1h-1v-1zm2 0h1v1h-1v-1zm2 0h1v1h-1v-1zM1.537 18.746c0 3.51.323 6.998 2.463 10.254h-.946C.997 26.275 0 22.741 0 18.63v-.923C0 13.596.997 9.725 3.054 7H4c-2.036 3.048-2.463 6.896-2.463 10.591v1.155zm30.926 0v-1.155c0-3.695-.427-7.543-2.463-10.591h.946C33.003 9.725 34 13.596 34 17.707v.924c0 4.11-.997 7.644-3.054 10.369H30c2.14-3.256 2.463-6.744 2.463-10.254z"/></svg></svg>