<svg xmlns="http://www.w3.org/2000/svg" width="50" height="50" viewBox="0 0 50 50">
  <path id="패스_4" data-name="패스 4" d="M22.222,3h1.852V4.613H22.222Zm0,3.226h1.852V7.839H22.222ZM25.926,3h1.852V4.613H25.926Zm3.7,0h1.852V4.613H29.629Zm3.7,0h1.852V4.613H33.333Zm0,3.226h1.852V7.839H33.333ZM22.222,9.452h1.852v1.613H22.222Zm11.111,0h1.852v1.613H33.333ZM22.222,12.677h1.852V14.29H22.222Zm3.7,0h1.852V14.29H25.926Zm3.7,0h1.852V14.29H29.629Zm3.7,0h1.852V14.29H33.333ZM14.815,41.71h1.852v1.613H14.815Zm0,3.226h1.852v1.613H14.815Zm3.7-3.226h1.852v1.613H18.519Zm3.7,0h1.852v1.613H22.222Zm3.7,0h1.852v1.613H25.926Zm0,3.226h1.852v1.613H25.926ZM14.815,48.161h1.852v1.613H14.815Zm11.111,0h1.852v1.613H25.926ZM14.815,51.387h1.852V53H14.815Zm3.7,0h1.852V53H18.519Zm3.7,0h1.852V53H22.222Zm3.7,0h1.852V53H25.926Zm7.407-30.645h1.852v1.613H33.333Zm3.7,0h1.852v1.613H37.036Zm3.7,0h1.852v1.613H40.74Zm3.7,0H46.3v1.613H44.443Zm3.7,0H50v1.613H48.147ZM33.333,23.968h1.852v1.613H33.333Zm14.814,0H50v1.613H48.147ZM33.333,27.194h1.852v1.613H33.333Zm14.814,0H50v1.613H48.147ZM33.333,30.419h1.852v1.613H33.333Zm14.814,0H50v1.613H48.147ZM33.333,33.645h1.852v1.613H33.333Zm3.7,0h1.852v1.613H37.036Zm3.7,0h1.852v1.613H40.74Zm3.7,0H46.3v1.613H44.443Zm3.7,0H50v1.613H48.147ZM3.923,46.548A5.312,5.312,0,0,1,2.3,46.268,4.023,4.023,0,0,1,.784,45.4a2.3,2.3,0,0,1-.757-1.319,1.774,1.774,0,0,1,0-.632,1.385,1.385,0,0,1,.209-.529,1.165,1.165,0,0,1,.339-.352,1.921,1.921,0,0,1,.53-.255,2.185,2.185,0,0,1,1.418.048,1.356,1.356,0,0,1,.663.431,1.212,1.212,0,0,1,.265.608,1.488,1.488,0,0,0,.161.448,1.7,1.7,0,0,0,.311.368,1.1,1.1,0,0,0,.493.271,2.4,2.4,0,0,0,.7.1,1.83,1.83,0,0,0,1.58-.871A6.827,6.827,0,0,0,7.6,41.118a30.675,30.675,0,0,0,.407-4.265q.094-2.543.094-5.9,0-10.335,1.852-15.134,1.917-4.752,6.472-4.752a5.4,5.4,0,0,1,1.637.273,3.845,3.845,0,0,1,1.5.879,2.374,2.374,0,0,1,.776,1.344,2.064,2.064,0,0,1,.007.648,1.421,1.421,0,0,1-.2.552,1.166,1.166,0,0,1-.341.352,2.085,2.085,0,0,1-1.948.21,1.36,1.36,0,0,1-.661-.432,1.2,1.2,0,0,1-.265-.608,3.866,3.866,0,0,0-.122-.465.829.829,0,0,0-.294-.368,1.7,1.7,0,0,0-.53-.248,2.447,2.447,0,0,0-.718-.1q-2,0-2.629,2.784a28.728,28.728,0,0,0-.47,4.535q-.153,3.143-.152,8.182a53.866,53.866,0,0,1-.454,7.376A28.121,28.121,0,0,1,10.206,41.7q-1.819,4.851-6.281,4.848Z" transform="translate(0.001 -3)" fill="#555" fill-rule="evenodd"/>
</svg>
