<svg xmlns="http://www.w3.org/2000/svg" width="47" height="56" viewBox="-10 -10 47 56" id="eq-4" x="600" y="168"><path fill="#555" fill-rule="evenodd" d="M12 3h1v1h-1V3zm0 2h1v1h-1V5zm2-2h1v1h-1V3zm2 0h1v1h-1V3zm2 0h1v1h-1V3zm0 2h1v1h-1V5zm-6 2h1v1h-1V7zm6 0h1v1h-1V7zm-6 2h1v1h-1V9zm2 0h1v1h-1V9zm2 0h1v1h-1V9zm2 0h1v1h-1V9zM8 27h1v1H8v-1zm0 2h1v1H8v-1zm2-2h1v1h-1v-1zm2 0h1v1h-1v-1zm2 0h1v1h-1v-1zm0 2h1v1h-1v-1zm-6 2h1v1H8v-1zm6 0h1v1h-1v-1zm-6 2h1v1H8v-1zm2 0h1v1h-1v-1zm2 0h1v1h-1v-1zm2 0h1v1h-1v-1zm4-19h1v1h-1v-1zm2 0h1v1h-1v-1zm2 0h1v1h-1v-1zm2 0h1v1h-1v-1zm2 0h1v1h-1v-1zm-8 2h1v1h-1v-1zm8 0h1v1h-1v-1zm-8 2h1v1h-1v-1zm8 0h1v1h-1v-1zm-8 2h1v1h-1v-1zm8 0h1v1h-1v-1zm-8 2h1v1h-1v-1zm2 0h1v1h-1v-1zm2 0h1v1h-1v-1zm2 0h1v1h-1v-1zm2 0h1v1h-1v-1zM2.118 30c-.272 0-.565-.058-.878-.174a2.125 2.125 0 0 1-.817-.54 1.417 1.417 0 0 1-.281-.402 1.573 1.573 0 0 1-.128-.416 1.26 1.26 0 0 1 0-.392.936.936 0 0 1 .113-.328.689.689 0 0 1 .183-.218.987.987 0 0 1 .286-.158 1.037 1.037 0 0 1 .766.03.732.732 0 0 1 .358.267c.081.12.13.245.143.377.02.112.05.205.087.278.037.072.093.148.168.228.061.073.15.129.266.168.115.04.241.06.377.06.354 0 .639-.18.853-.54.215-.361.378-.897.49-1.607.113-.711.186-1.592.22-2.644.034-1.051.051-2.271.051-3.66 0-4.272.334-7.4 1-9.383C6.065 8.982 7.23 8 8.87 8c.28 0 .574.056.884.169.31.112.58.294.812.545a1.534 1.534 0 0 1 .419.833c.02.14.021.273.004.402a.968.968 0 0 1-.107.342.689.689 0 0 1-.184.218 1.004 1.004 0 0 1-1.052.13.735.735 0 0 1-.357-.268.805.805 0 0 1-.143-.377 2.687 2.687 0 0 0-.066-.288.508.508 0 0 0-.159-.228.87.87 0 0 0-.286-.154 1.164 1.164 0 0 0-.388-.064c-.721 0-1.194.575-1.42 1.726-.115.575-.2 1.512-.254 2.812-.055 1.299-.082 2.99-.082 5.073 0 1.706-.082 3.23-.245 4.573-.164 1.342-.409 2.526-.735 3.55C4.856 28.999 3.726 30 2.119 30z"/></svg>