<svg xmlns="http://www.w3.org/2000/svg" width="47" height="56" viewBox="-10 -10 47 56" id="eq-1" x="120" y="521"><path fill="#555" fill-rule="evenodd" d="M3 18h21v1H3v-1zm3 3h1v1H6v-1zm2 0h1v1H8v-1zm2 0h1v1h-1v-1zm2 0h1v1h-1v-1zm2 0h1v1h-1v-1zM8 31h1v1H8v-1zm2 0h1v1h-1v-1zm2 0h1v1h-1v-1zm2 0h1v1h-1v-1zm2-10h1v1h-1v-1zm0 10h1v1h-1v-1zm2-10h1v1h-1v-1zm0 10h1v1h-1v-1zm2-2h1v1h-1v-1zm0-8h1v1h-1v-1zM6 23h1v1H6v-1zm14 0h1v1h-1v-1zM6 25h1v1H6v-1zm14 0h1v1h-1v-1zM6 27h1v1H6v-1zm14 0h1v1h-1v-1zM6 29h1v1H6v-1zm14 2h1v1h-1v-1zM6 31h1v1H6v-1zM6 5h1v1H6V5zm2 0h1v1H8V5zm2 0h1v1h-1V5zm2 0h1v1h-1V5zm2 0h1v1h-1V5zM8 15h1v1H8v-1zm2 0h1v1h-1v-1zm2 0h1v1h-1v-1zm2 0h1v1h-1v-1zm2-10h1v1h-1V5zm0 10h1v1h-1v-1zm2-10h1v1h-1V5zm0 10h1v1h-1v-1zm2-2h1v1h-1v-1zm0-8h1v1h-1V5zM6 7h1v1H6V7zm14 0h1v1h-1V7zM6 9h1v1H6V9zm14 0h1v1h-1V9zM6 11h1v1H6v-1zm14 0h1v1h-1v-1zM6 13h1v1H6v-1zm14 2h1v1h-1v-1zM6 15h1v1H6v-1z"/></svg>