<svg xmlns="http://www.w3.org/2000/svg" width="50" height="50" viewBox="0 0 50 50">
  <path id="패스_3" data-name="패스 3" d="M8.692,27.455h1.923v2.273H8.692Zm-3.846,0H6.769v2.273H4.846ZM1,27.455H2.923v2.273H1Zm11.538,0h1.923v2.273H12.538Zm3.846,0h1.923v2.273H16.385Zm3.846,0h1.923v2.273H20.231Zm3.846,0H26v2.273H24.077ZM4.846,54.727H6.769V57H4.846ZM1,50.182H2.923v2.273H1Zm0,4.545H2.923V57H1Zm11.538,0h1.923V57H12.538Zm-3.846,0h1.923V57H8.692Zm7.692,0h1.923V57H16.385Zm3.846,0h1.923V57H20.231Zm3.846,0H26V57H24.077Zm3.846,0h1.923V57H27.923Zm0-27.273h1.923v2.273H27.923ZM1,32H2.923v2.273H1Zm26.923,0h1.923v2.273H27.923ZM1,36.545H2.923v2.273H1Zm26.923,0h1.923v2.273H27.923ZM1,41.091H2.923v2.273H1Zm26.923,0h1.923v2.273H27.923ZM1,45.636H2.923v2.273H1Zm26.923,0h1.923v2.273H27.923Zm0,4.545h1.923v2.273H27.923Zm5.769-34.091h1.923v2.273H33.692Zm0-4.545h1.923v2.273H33.692ZM37.538,7h1.923V9.273H37.538Zm3.846,0h1.923V9.273H41.385Zm3.846,0h1.923V9.273H45.231Zm3.846,4.545H51v2.273H49.077ZM33.692,7h1.923V9.273H33.692ZM49.077,7H51V9.273H49.077Zm0,9.091H51v2.273H49.077ZM33.692,20.636h1.923v2.273H33.692Zm15.385,0H51v2.273H49.077ZM33.692,25.182h1.923v2.273H33.692Zm15.385,0H51v2.273H49.077ZM33.692,29.727h1.923V32H33.692Zm15.385,0H51V32H49.077ZM33.692,34.273h1.923v2.273H33.692Zm3.846,0h1.923v2.273H37.538Zm3.846,0h1.923v2.273H41.385Zm3.846,0h1.923v2.273H45.231Zm3.846,0H51v2.273H49.077Z" transform="translate(-1 -7)" fill="#555" fill-rule="evenodd"/>
</svg>