<svg xmlns="http://www.w3.org/2000/svg" width="47" height="56" viewBox="-10 -10 47 56" id="eq-3" x="600" y="56"><path fill="#555" fill-rule="evenodd" d="M5 16h1v1H5v-1zm-2 0h1v1H3v-1zm-2 0h1v1H1v-1zm6 0h1v1H7v-1zm2 0h1v1H9v-1zm2 0h1v1h-1v-1zm2 0h1v1h-1v-1zM3 28h1v1H3v-1zm-2-2h1v1H1v-1zm0 2h1v1H1v-1zm6 0h1v1H7v-1zm-2 0h1v1H5v-1zm4 0h1v1H9v-1zm2 0h1v1h-1v-1zm2 0h1v1h-1v-1zm2 0h1v1h-1v-1zm0-12h1v1h-1v-1zM1 18h1v1H1v-1zm14 0h1v1h-1v-1zM1 20h1v1H1v-1zm14 0h1v1h-1v-1zM1 22h1v1H1v-1zm14 0h1v1h-1v-1zM1 24h1v1H1v-1zm14 0h1v1h-1v-1zm0 2h1v1h-1v-1zm3-15h1v1h-1v-1zm0-2h1v1h-1V9zm2-2h1v1h-1V7zm2 0h1v1h-1V7zm2 0h1v1h-1V7zm2 2h1v1h-1V9zm-8-2h1v1h-1V7zm8 0h1v1h-1V7zm0 4h1v1h-1v-1zm-8 2h1v1h-1v-1zm8 0h1v1h-1v-1zm-8 2h1v1h-1v-1zm8 0h1v1h-1v-1zm-8 2h1v1h-1v-1zm8 0h1v1h-1v-1zm-8 2h1v1h-1v-1zm2 0h1v1h-1v-1zm2 0h1v1h-1v-1zm2 0h1v1h-1v-1zm2 0h1v1h-1v-1z"/></svg>