<svg xmlns="http://www.w3.org/2000/svg" width="50" height="50" viewBox="0 0 50 50">
  <path id="패스_2" data-name="패스 2" d="M22.222,10H50v3.125H20.37L12.963,60H10.337L3.367,37.422.522,39.328,0,37.422l5.522-3.8L11.465,53.3,18.519,10Zm1.852,15.625h1.852V28.75H24.074Zm3.7,0H29.63V28.75H27.778Zm3.7,0h1.852V28.75H31.481Zm3.7,0h1.852V28.75H35.185Zm3.7,0h1.852V28.75H38.889ZM27.778,56.875H29.63V60H27.778Zm3.7,0h1.852V60H31.481Zm3.7,0h1.852V60H35.185Zm3.7,0h1.852V60H38.889Zm3.7-31.25h1.852V28.75H42.593Zm3.7,0h1.852V28.75H46.3Zm-22.222,6.25h1.852V35H24.074Zm22.222,0h1.852V35H46.3Zm-22.222,6.25h1.852V41.25H24.074Zm22.222,0h1.852V41.25H46.3Zm-22.222,6.25h1.852V47.5H24.074Zm22.222,0h1.852V47.5H46.3Zm0,6.25h1.852V53.75H46.3Zm0,6.25h1.852V60H46.3Zm-22.222-6.25h1.852V53.75H24.074Zm0,6.25h1.852V60H24.074Zm18.519,0h1.852V60H42.593Z" transform="translate(0 -10)" fill="#555" fill-rule="evenodd"/>
</svg>
