<svg xmlns="http://www.w3.org/2000/svg" width="47" height="56" viewBox="-10 -10 47 56" id="eq-2" x="512" y="521"><path fill="#555" fill-rule="evenodd" d="M12 10h15v1H11L7 26H5.582l-3.764-7.225-1.536.61-.282-.61 2.982-1.217 3.209 6.299L10 10h2zm1 5h1v1h-1v-1zm2 0h1v1h-1v-1zm2 0h1v1h-1v-1zm2 0h1v1h-1v-1zm2 0h1v1h-1v-1zm-6 10h1v1h-1v-1zm2 0h1v1h-1v-1zm2 0h1v1h-1v-1zm2 0h1v1h-1v-1zm2-10h1v1h-1v-1zm2 0h1v1h-1v-1zm-12 2h1v1h-1v-1zm12 0h1v1h-1v-1zm-12 2h1v1h-1v-1zm12 0h1v1h-1v-1zm-12 2h1v1h-1v-1zm12 0h1v1h-1v-1zm0 2h1v1h-1v-1zm0 2h1v1h-1v-1zm-12-2h1v1h-1v-1zm0 2h1v1h-1v-1zm10 0h1v1h-1v-1z"/></svg>