<svg xmlns="http://www.w3.org/2000/svg" width="50" height="50" viewBox="0 0 50 50">
  <path id="패스_5" data-name="패스 5" d="M8.369,17.751l8.048,7.376v.757L7.393,33.37H18.267a11.1,11.1,0,0,0,1.545-.08,3.541,3.541,0,0,0,.89-.244,2.315,2.315,0,0,0,.679-.46,3.344,3.344,0,0,0,.586-.813,7.16,7.16,0,0,0,.529-1.357h1.933L24,34.7a.5.5,0,0,1-.29.459,1.935,1.935,0,0,1-.8.13H3v-.559l10.21-8.471L3.629,17.284v-.57H22.645a3.342,3.342,0,0,1,.7.06,1,1,0,0,1,.421.18.615.615,0,0,1,.207.289,1.225,1.225,0,0,1,.057.39v3.523H22.248a12.292,12.292,0,0,0-.786-1.547,4.333,4.333,0,0,0-.76-.949,3.123,3.123,0,0,0-.793-.534,3.92,3.92,0,0,0-.933-.279,8.3,8.3,0,0,0-1.4-.1ZM3,1H5.381V2.429H3ZM7.762,1h2.381V2.429H7.762Zm4.762,0H14.9V2.429H12.524Zm4.762,0h2.381V2.429H17.286Zm4.762,0h2.381V2.429H22.048ZM3,3.857H5.381V5.286H3Zm19.048,0h2.381V5.286H22.048ZM3,6.714H5.381V8.143H3Zm19.048,0h2.381V8.143H22.048ZM3,9.571H5.381V11H3Zm19.048,0h2.381V11H22.048ZM3,12.429H5.381v1.429H3Zm4.762,0h2.381v1.429H7.762Zm4.762,0H14.9v1.429H12.524Zm4.762,0h2.381v1.429H17.286Zm4.762,0h2.381v1.429H22.048Zm9.524,7.143h2.381V21H31.571Zm4.762,0h2.381V21H36.333Zm4.762,0h2.381V21H41.1Zm4.762,0h2.381V21H45.857Zm4.762,0H53V21H50.619ZM31.571,22.429h2.381v1.429H31.571Zm19.048,0H53v1.429H50.619ZM31.571,25.286h2.381v1.429H31.571Zm19.048,0H53v1.429H50.619ZM31.571,28.143h2.381v1.429H31.571Zm19.048,0H53v1.429H50.619ZM31.571,31h2.381v1.429H31.571Zm4.762,0h2.381v1.429H36.333ZM41.1,31h2.381v1.429H41.1Zm4.762,0h2.381v1.429H45.857Zm4.762,0H53v1.429H50.619ZM3,38.143H5.381v1.429H3Zm4.762,0h2.381v1.429H7.762Zm4.762,0H14.9v1.429H12.524Zm4.762,0h2.381v1.429H17.286Zm4.762,0h2.381v1.429H22.048ZM3,41H5.381v1.429H3Zm19.048,0h2.381v1.429H22.048ZM3,43.857H5.381v1.429H3Zm19.048,0h2.381v1.429H22.048ZM3,46.714H5.381v1.429H3Zm19.048,0h2.381v1.429H22.048ZM3,49.571H5.381V51H3Zm4.762,0h2.381V51H7.762Zm4.762,0H14.9V51H12.524Zm4.762,0h2.381V51H17.286Zm4.762,0h2.381V51H22.048Z" transform="translate(-3 -1)" fill="#555" fill-rule="evenodd"/>
</svg>