<svg xmlns="http://www.w3.org/2000/svg" width="54" height="56" viewBox="-10 -10 54 56" id="eq-7" y="581"><path d="M6.268 18.177h-.34c-.202-.61-.351-.88-.636-1.163-.298-.298-.65-.454-1.016-.454-.515 0-.894.355-.894.823 0 .482.38.851 1.3 1.248 1.355.596 1.87 1.206 1.87 2.213C6.552 22.121 5.7 23 4.466 23c-.38 0-1.07-.156-1.463-.326a.918.918 0 0 0-.312-.085c-.122 0-.203.099-.352.397H2v-2.34h.38c.284 1.233.907 1.872 1.855 1.872.61 0 1.016-.37 1.016-.922 0-.454-.365-.809-1.3-1.234-1.368-.61-1.924-1.263-1.924-2.199 0-1.191.894-2.07 2.127-2.07.312 0 .623.056 1.057.212.217.07.339.1.42.1.176 0 .257-.072.339-.284h.298v2.056zm3.576-4.07c0 .623-.46 1.092-1.057 1.092-.596 0-1.043-.469-1.043-1.093S8.204 13 8.814 13c.57 0 1.03.496 1.03 1.106zM10.4 22.8H7.148v-.34c.623-.156.718-.255.718-.908V17.51c0-.639-.135-.78-.731-.908v-.34h2.614v5.333c0 .61.176.794.65.865v.34zm7.6 0h-3.17v-.34c.46-.057.623-.284.623-.851v-3.362c0-.794-.23-1.205-.69-1.205-.326 0-.651.17-.95.482-.135.142-.23.284-.23.34v3.745c0 .525.15.78.65.851v.34h-3.25v-.34c.609-.128.717-.298.717-.894v-4.099c0-.61-.122-.766-.718-.865v-.34h2.588v1.063h.013c.461-.85 1.111-1.234 1.924-1.234 1.111 0 1.83.78 1.83 2.014v3.504c0 .638.135.808.663.851v.34zm3-8.8h1v1h-1v-1zm2 0h1v1h-1v-1zm2 0h1v1h-1v-1zm2 0h1v1h-1v-1zm2 0h1v1h-1v-1zm-6 8h1v1h-1v-1zm2 0h1v1h-1v-1zm2 0h1v1h-1v-1zm2 0h1v1h-1v-1zm2-8h1v1h-1v-1zm-10 2h1v1h-1v-1zm10 0h1v1h-1v-1zm-10 2h1v1h-1v-1zm10 0h1v1h-1v-1zm-10 2h1v1h-1v-1zm10 0h1v1h-1v-1zm-10 2h1v1h-1v-1zm10 0h1v1h-1v-1z" fill="#555" fill-rule="evenodd"/></svg>