<svg xmlns="http://www.w3.org/2000/svg" width="60" height="20" viewBox="0 0 60 20">
  <path id="패스_7" data-name="패스 7" d="M10.536,23.354h-.68a5.089,5.089,0,0,0-1.272-2.326,2.862,2.862,0,0,0-2.032-.908,1.679,1.679,0,0,0-1.788,1.646c0,.964.76,1.7,2.6,2.5,2.71,1.192,3.74,2.412,3.74,4.426A4.046,4.046,0,0,1,6.932,33a9.238,9.238,0,0,1-2.926-.652,1.836,1.836,0,0,0-.624-.17c-.244,0-.406.2-.7.794H2v-4.68h.76c.568,2.466,1.814,3.744,3.71,3.744A1.838,1.838,0,0,0,8.5,30.192c0-.908-.73-1.618-2.6-2.468-2.736-1.22-3.848-2.526-3.848-4.4a4.07,4.07,0,0,1,4.254-4.14,5.992,5.992,0,0,1,2.114.424,3.185,3.185,0,0,0,.84.2c.352,0,.514-.144.678-.568h.6Zm7.152-8.14a2.1,2.1,0,1,1-4.2,0,2.1,2.1,0,1,1,4.2,0ZM18.8,32.6H12.3v-.68c1.246-.312,1.436-.51,1.436-1.816V22.02c0-1.278-.27-1.56-1.462-1.816v-.68H17.5V30.19c0,1.22.352,1.588,1.3,1.73v.68Zm15.2,0H27.66v-.68c.92-.114,1.246-.568,1.246-1.7V23.494c0-1.588-.46-2.41-1.38-2.41a2.7,2.7,0,0,0-1.9.964,1.666,1.666,0,0,0-.46.68v7.49c0,1.05.3,1.56,1.3,1.7v.68h-6.5v-.68c1.218-.256,1.434-.6,1.434-1.788v-8.2c0-1.22-.244-1.532-1.436-1.73v-.68H25.14V21.65h.026a4.177,4.177,0,0,1,3.848-2.468c2.222,0,3.66,1.56,3.66,4.028v7.008c0,1.276.27,1.616,1.326,1.7v.68ZM40,15h2v2H40Zm4,0h2v2H44Zm4,0h2v2H48Zm4,0h2v2H52Zm4,0h2v2H56ZM44,31h2v2H44Zm4,0h2v2H48Zm4,0h2v2H52Zm4,0h2v2H56Zm4-16h2v2H60ZM40,19h2v2H40Zm20,0h2v2H60ZM40,23h2v2H40Zm20,0h2v2H60ZM40,27h2v2H40Zm20,0h2v2H60ZM40,31h2v2H40Zm20,0h2v2H60Z" transform="translate(-2 -13)" fill="#555" fill-rule="evenodd"/>
</svg>