<svg xmlns="http://www.w3.org/2000/svg" width="36" height="32" viewBox="-10 -10 36 32" id="symbol-8" x="647" y="570"><g fill="none" fill-rule="evenodd"><path d="M-5-5h24v24H-5z"/><path fill="#333" d="M4.297 4.803c.075.108.145.25.212.427a1.536 1.536 0 0 1 .092.72.725.725 0 0 1-.044.196.643.643 0 0 1-.1.177.456.456 0 0 1-.168.129.396.396 0 0 1-.229.028.445.445 0 0 1-.212-.1.605.605 0 0 1-.156-.206.669.669 0 0 1-.06-.293c0-.424-.086-.722-.257-.897-.171-.174-.406-.261-.705-.261-.22 0-.42.068-.602.205-.181.137-.339.34-.473.611-.133.27-.237.61-.312 1.017A7.962 7.962 0 0 0 1.17 7.98c0 .45.025.863.076 1.238.05.375.136.698.256.969.12.27.28.48.477.627.198.147.444.221.738.221.288 0 .557-.072.805-.217.249-.145.507-.4.774-.764l.36.53a6.8 6.8 0 0 1-.3.395 4.451 4.451 0 0 1-.269.297 2.82 2.82 0 0 1-.256.23 2.434 2.434 0 0 1-.814.418c-.179.05-.375.076-.589.076-.796 0-1.4-.332-1.811-.997C.206 10.338 0 9.368 0 8.093a6.035 6.035 0 0 1 .193-1.63c.133-.495.324-.92.573-1.274a2.75 2.75 0 0 1 .886-.824 2.12 2.12 0 0 1 1.13-.277c.342 0 .633.053.874.16a1.6 1.6 0 0 1 .64.555zM14.434.47a.544.544 0 0 0-.358.14.555.555 0 0 0-.114.159.45.45 0 0 0-.044.198.455.455 0 0 1-.109.349.41.41 0 0 1-.328.149.384.384 0 0 1-.32-.14.508.508 0 0 1-.109-.321.73.73 0 0 1 .075-.312c.05-.106.124-.2.223-.285.21-.157.41-.264.599-.321.19-.057.4-.086.634-.086.45 0 .786.101 1.01.303.225.202.337.496.337.881a1.598 1.598 0 0 1-.149.688c-.064.12-.141.24-.231.361a6.587 6.587 0 0 1-.49.583c-.09.1-.2.219-.328.358-.193.217-.362.417-.508.6a5.202 5.202 0 0 0-.367.52h1.155c.105-.005.188-.014.249-.026a.341.341 0 0 0 .149-.064.312.312 0 0 0 .091-.135c.024-.06.053-.142.088-.244H16L15.939 5H13v-.253c.093-.26.226-.52.398-.782a8.92 8.92 0 0 1 .722-.927v.009l.332-.393a4.31 4.31 0 0 0 .227-.294c.187-.235.308-.431.363-.588.056-.157.083-.313.083-.47 0-.247-.056-.446-.17-.597-.114-.15-.287-.229-.52-.235zM9.9 9.861c0 .204.003.377.008.519.005.142.013.25.024.325a1.2 1.2 0 0 0 .096.362.955.955 0 0 0 .068.117.482.482 0 0 0 .096.1c.04.033.093.065.157.097s.147.064.248.096v.394h-2.62v-.394a1.84 1.84 0 0 0 .204-.088.71.71 0 0 0 .292-.282 1.08 1.08 0 0 0 .12-.398c.027-.18.04-.451.04-.816V7.787c0-.36-.006-.672-.02-.937a8.782 8.782 0 0 0-.056-.676 4.153 4.153 0 0 0-.08-.454 1.647 1.647 0 0 0-.092-.281.71.71 0 0 0-.217-.266.538.538 0 0 0-.384-.104.45.45 0 0 0-.245.08.794.794 0 0 0-.172.169.956.956 0 0 0-.116.201l-.076.177a2.711 2.711 0 0 0-.145.474c-.048.21-.072.435-.072.676V9.86c0 .306.005.539.016.7.01.16.03.29.056.386.022.064.043.12.064.168a.387.387 0 0 0 .1.133c.046.04.103.08.173.117.07.037.163.075.28.112v.394H5.042v-.394c.155-.064.266-.122.333-.173a.594.594 0 0 0 .164-.197 1.108 1.108 0 0 0 .112-.39 7.082 7.082 0 0 0 .041-.84v-3.49c0-.343-.006-.62-.016-.832a1.603 1.603 0 0 0-.093-.506.555.555 0 0 0-.232-.282 1.563 1.563 0 0 0-.445-.157v-.426l1.523-.072h.273c.112 0 .184.027.216.08.032.054.045.142.04.266L6.886 5.51l.04.032c.075-.204.138-.367.188-.49a1.8 1.8 0 0 1 .189-.346c.117-.172.264-.324.44-.458a.98.98 0 0 1 .61-.201c.385 0 .699.123.942.37.243.246.418.63.525 1.15a6.22 6.22 0 0 0 .112-.278 3.927 3.927 0 0 1 .28-.6c.107-.181.252-.334.433-.458a1.01 1.01 0 0 1 .578-.184c.219 0 .436.05.653.152.216.102.397.266.54.49.15.22.259.495.326.825.066.33.1.768.1 1.315V9.86c0 .413.008.694.024.844.01.075.025.144.044.205.019.062.036.114.052.157.021.043.043.082.064.117a.4.4 0 0 0 .092.1c.04.033.091.065.153.097.061.032.143.064.244.096v.394h-2.59v-.394c.086-.032.156-.061.21-.088a.56.56 0 0 0 .128-.085.449.449 0 0 0 .076-.088 1.41 1.41 0 0 0 .06-.109 1.65 1.65 0 0 0 .116-.398c.035-.18.052-.451.052-.816V7.787c0-.36-.002-.668-.008-.925a13.193 13.193 0 0 0-.028-.664 3.52 3.52 0 0 0-.06-.466 1.255 1.255 0 0 0-.112-.326.949.949 0 0 0-.2-.289c-.075-.07-.196-.105-.361-.105a.412.412 0 0 0-.253.08.99.99 0 0 0-.192.19 1.257 1.257 0 0 0-.14.225c-.038.078-.067.14-.089.189a2.9 2.9 0 0 0-.148.474 2.91 2.91 0 0 0-.076.676V9.86z"/></g></svg>